<?xml version="1.0" standalone="no"?>
<!DOCTYPE svg PUBLIC "-//W3C//DTD SVG 20010904//EN"
 "http://www.w3.org/TR/2001/REC-SVG-20010904/DTD/svg10.dtd">
<svg version="1.0" xmlns="http://www.w3.org/2000/svg"
 width="755.000000pt" height="722.000000pt" viewBox="0 0 755.000000 722.000000"
 preserveAspectRatio="xMidYMid meet">
<metadata>
Created by potrace 1.16, written by Peter Selinger 2001-2019
</metadata>
<g transform="translate(0.000000,722.000000) scale(0.100000,-0.100000)"
fill="#000000" stroke="none">
<path d="M2620 7113 c-8 -3 -35 -14 -60 -25 -25 -12 -61 -27 -80 -35 -32 -12
-33 -12 -16 2 11 8 23 15 28 15 4 0 8 5 8 11 0 8 -6 7 -16 -2 -22 -18 -259
-25 -248 -7 5 7 3 8 -7 2 -32 -20 -77 -31 -94 -22 -10 6 -21 6 -30 -2 -8 -6
-20 -8 -26 -4 -8 5 -9 3 -4 -6 5 -9 2 -10 -13 -6 -12 4 -23 2 -28 -6 -4 -7 -4
-10 1 -6 4 4 14 3 21 -3 10 -8 19 -5 35 10 26 24 35 26 45 9 4 -6 3 -8 -3 -5
-5 4 -30 -8 -54 -26 -24 -17 -38 -24 -30 -14 12 15 11 17 -6 17 -11 0 -23 3
-27 7 -11 11 -46 14 -46 3 0 -6 10 -10 23 -11 18 -1 16 -3 -8 -9 -16 -4 -39
-11 -50 -15 -11 -4 -15 -3 -9 2 11 8 13 57 4 67 -3 3 -5 -7 -5 -22 1 -15 -3
-33 -8 -39 -5 -7 -6 -13 -1 -13 4 0 -3 -11 -16 -25 -23 -25 -43 -25 -34 -1 3
8 1 16 -4 20 -10 6 -9 -24 1 -41 4 -7 -1 -31 -11 -55 -11 -24 -25 -62 -31 -85
-10 -38 -15 -43 -39 -42 -27 1 -27 1 -3 8 29 8 49 59 23 57 -8 0 -25 -11 -38
-23 -21 -21 -61 -23 -48 -2 3 5 -1 9 -9 9 -9 0 -14 -10 -14 -25 0 -21 3 -24
26 -19 l26 6 -25 -14 c-21 -12 -28 -12 -47 0 -12 7 -34 12 -50 10 l-28 -4 28
-12 c15 -6 27 -17 26 -24 0 -10 -2 -10 -5 -1 -3 7 -11 10 -19 7 -7 -3 -16 -1
-20 5 -3 6 -12 11 -18 11 -7 0 -4 -5 6 -11 16 -10 17 -13 4 -27 -10 -11 -15
-39 -15 -82 0 -64 0 -65 -54 -130 -31 -36 -58 -75 -62 -88 -4 -12 -12 -19 -18
-16 -7 4 -8 2 -4 -5 4 -6 -2 -36 -13 -67 -12 -30 -21 -67 -21 -82 -1 -27 -1
-27 -13 -5 -11 19 -12 15 -12 -34 0 -36 4 -58 13 -60 14 -5 16 -71 2 -93 -6
-10 -3 -20 11 -33 10 -10 19 -28 19 -41 0 -12 9 -57 20 -99 11 -42 19 -80 18
-84 -1 -5 2 -35 7 -68 5 -33 8 -68 6 -79 -1 -10 2 -15 7 -12 5 3 12 -7 15 -22
7 -39 52 -152 63 -160 5 -4 16 -20 24 -37 8 -16 18 -32 21 -35 3 -3 14 -28 23
-57 9 -28 24 -57 32 -63 7 -7 14 -21 14 -31 0 -11 3 -19 8 -19 4 0 13 -15 21
-32 8 -18 31 -69 52 -113 21 -44 41 -98 44 -120 4 -22 13 -50 21 -62 12 -20
12 -22 -9 -26 -20 -4 -20 -4 3 -6 22 -1 28 -9 41 -51 9 -27 12 -50 8 -50 -4 0
-9 5 -11 11 -2 7 -8 6 -15 -3 -8 -9 -9 -19 -3 -28 8 -13 10 -12 10 2 0 11 6
15 18 11 15 -4 21 -25 35 -126 10 -67 17 -145 17 -172 0 -49 -1 -50 -38 -62
-21 -7 -48 -9 -60 -6 -17 4 -21 2 -17 -9 13 -32 -39 -23 -226 39 -107 35 -201
66 -209 68 -8 2 -75 24 -148 48 -83 28 -128 39 -120 30 10 -12 8 -19 -12 -35
-23 -18 -22 -18 11 1 30 17 42 19 64 11 32 -12 25 -29 -13 -29 -44 1 -67 -7
-70 -24 -5 -23 24 -22 37 1 10 16 10 16 11 0 0 -13 8 -18 30 -18 29 0 41 -15
19 -22 -8 -3 -8 -10 2 -26 17 -27 29 -29 22 -2 -6 22 7 26 24 9 16 -16 57 -7
61 15 2 11 0 16 -7 12 -5 -4 -18 -3 -28 2 -37 19 -69 31 -93 35 -17 3 -13 5
13 6 25 1 36 5 31 12 -8 13 38 5 108 -19 41 -14 44 -18 30 -29 -15 -11 -13
-12 11 -3 23 8 58 -1 214 -53 103 -34 179 -64 168 -66 -11 -2 -30 -14 -43 -26
-24 -24 -62 -39 -62 -24 0 5 4 9 10 9 5 0 18 10 30 22 21 23 13 38 -19 38 -11
0 -10 -4 4 -14 17 -12 16 -13 -13 -12 -18 0 -32 5 -32 9 0 5 -5 5 -10 2 -6 -3
-10 3 -10 14 0 11 -3 22 -7 24 -9 4 -54 -17 -50 -24 1 -2 -3 2 -10 9 -6 8 -23
15 -37 16 -17 0 -24 6 -21 14 6 16 -7 15 -30 -2 -18 -13 -18 -15 -2 -31 10 -9
14 -22 10 -28 -4 -7 -10 -3 -16 11 -7 16 -16 20 -32 16 -13 -3 -26 0 -30 6 -5
9 -1 10 14 5 17 -5 21 -3 18 14 -4 26 -17 40 -17 18 0 -10 -8 -17 -20 -17 -11
0 -20 -4 -20 -10 0 -5 -7 -7 -15 -4 -9 4 -15 0 -15 -10 0 -9 8 -16 19 -16 26
0 37 -19 20 -32 -11 -8 -11 -9 2 -5 9 3 23 -3 33 -14 22 -26 20 -32 -8 -27
-21 4 -23 3 -13 -14 7 -10 20 -18 30 -18 11 0 28 -11 39 -25 11 -14 29 -25 41
-26 19 0 19 -2 -5 -11 -16 -5 -28 -14 -28 -19 0 -5 -5 -9 -10 -9 -6 0 -10 6
-9 13 4 31 -1 41 -13 29 -7 -7 -17 -12 -23 -12 -5 0 -4 4 3 9 11 7 11 9 -2 14
-12 5 -16 0 -16 -19 0 -21 4 -24 20 -19 11 3 20 2 20 -3 0 -5 -20 -13 -45 -16
-46 -7 -63 -26 -22 -26 17 0 19 -2 7 -9 -8 -6 -18 -7 -22 -4 -5 2 -14 0 -21
-5 -7 -6 -32 -18 -57 -28 -25 -9 -57 -26 -72 -36 -14 -10 -34 -18 -43 -18 -9
0 -13 -5 -10 -11 4 -6 -2 -5 -13 2 -25 16 -40 6 -23 -15 10 -12 0 -26 -53 -76
-69 -66 -86 -106 -86 -200 0 -35 -7 -47 -63 -104 -43 -44 -67 -62 -76 -57 -9
6 -10 11 -2 15 6 4 11 2 11 -5 0 -7 6 -4 14 6 8 11 12 24 9 28 -3 5 -9 3 -14
-4 -5 -8 -9 -10 -9 -6 0 4 -10 3 -22 -4 -18 -10 -20 -9 -15 5 4 10 1 16 -8 16
-8 0 -15 4 -15 10 0 5 -7 7 -15 4 -8 -4 -15 -1 -15 5 0 6 -7 8 -15 5 -29 -11
-35 7 -10 34 18 19 21 28 12 34 -8 5 -7 8 6 8 20 0 21 -4 7 -30 -8 -15 -5 -19
15 -22 13 -3 22 -1 19 3 -3 5 2 9 10 9 9 0 16 4 16 9 0 5 -8 7 -18 4 -15 -4
-18 2 -18 36 0 45 -15 56 -26 19 -3 -13 -6 -17 -7 -9 -1 8 -8 11 -22 8 -19 -5
-20 -4 -5 12 24 26 19 34 -9 15 -14 -9 -28 -14 -31 -11 -3 3 6 13 20 22 14 10
26 22 26 27 0 5 -7 2 -17 -7 -11 -12 -28 -16 -55 -13 -21 2 -38 1 -38 -1 0 -3
12 -16 28 -29 25 -21 25 -22 4 -17 -13 4 -22 2 -22 -4 0 -6 5 -11 11 -11 6 0
9 -6 6 -14 -3 -7 0 -19 6 -25 8 -8 8 -11 -1 -11 -7 0 -16 8 -19 18 -8 19 -28
42 -38 42 -4 0 3 -12 14 -26 26 -33 26 -44 1 -44 -11 0 -19 5 -17 11 4 19 -42
17 -59 -2 -9 -10 -22 -16 -28 -12 -6 3 -5 0 2 -8 18 -19 15 -38 -10 -65 -27
-27 -38 -30 -38 -9 0 8 -7 15 -15 15 -8 0 -15 5 -15 11 0 7 10 9 25 5 28 -7
46 17 27 36 -8 8 -13 7 -18 -6 -5 -12 -10 -14 -20 -6 -7 7 -10 18 -7 26 3 9
-2 14 -16 14 -18 0 -20 -3 -11 -19 14 -27 13 -41 -4 -41 -18 0 -22 6 -30 53
-5 29 -4 37 4 32 9 -5 9 -1 0 15 -10 20 -10 22 3 17 11 -4 13 0 9 15 -2 11
-11 22 -18 25 -8 3 -14 14 -14 25 0 12 4 17 12 12 8 -5 9 -2 5 10 -4 10 -7 19
-7 21 0 2 -10 1 -22 -2 -23 -5 -23 -5 -3 10 17 14 17 16 4 17 -19 0 -35 -30
-21 -39 12 -8 24 -43 13 -36 -5 3 -16 -3 -23 -12 -15 -20 -48 -29 -48 -13 0 5
3 9 7 9 21 -3 31 3 36 21 7 25 -8 26 -35 0 -16 -15 -25 -17 -35 -9 -10 9 -13
8 -13 -4 0 -9 5 -19 10 -22 6 -3 10 -11 10 -17 0 -6 -9 -3 -20 7 -19 17 -19
16 -14 -10 2 -14 1 -24 -4 -21 -4 2 -14 1 -22 -5 -11 -6 -12 -9 -2 -9 7 0 10
-5 7 -10 -4 -6 -10 -8 -15 -5 -5 3 -11 1 -15 -5 -3 -5 0 -10 7 -11 7 0 23 -2
36 -5 17 -3 22 1 23 19 1 16 2 18 6 5 4 -18 14 -22 43 -19 13 2 13 1 0 -8 -12
-9 -12 -11 3 -17 9 -3 17 -12 17 -20 0 -11 -7 -13 -27 -8 -23 6 -25 5 -19 -12
6 -15 5 -17 -6 -6 -10 10 -10 17 -1 31 16 25 -7 36 -34 16 -16 -13 -16 -14 -1
-15 10 0 19 -12 23 -31 4 -18 16 -34 28 -39 12 -5 16 -9 10 -9 -7 -1 -13 -8
-13 -17 0 -10 -6 -14 -15 -10 -8 3 -14 2 -12 -2 2 -8 -7 -12 -28 -12 -9 0 -12
6 -9 15 4 8 1 15 -5 15 -6 0 -10 -5 -8 -12 1 -6 -10 -18 -25 -25 -29 -15 -35
-27 -18 -38 6 -3 10 -11 10 -17 0 -6 -7 -5 -18 4 -21 18 -42 13 -42 -11 0 -9
-5 -22 -12 -29 -24 -24 0 -21 57 9 45 23 60 27 66 17 5 -7 9 -16 9 -20 0 -6
-42 -23 -48 -19 -1 1 -10 -5 -18 -14 -10 -10 -24 -13 -42 -8 -24 6 -22 1 22
-41 48 -47 62 -53 50 -22 -3 9 -18 19 -32 23 -24 6 -25 7 -7 14 32 12 45 10
45 -8 0 -9 3 -13 6 -10 12 12 42 -13 53 -43 6 -18 6 -28 1 -25 -6 4 -10 13
-10 22 0 13 -2 14 -17 2 -15 -12 -16 -12 -10 3 3 10 2 20 -3 23 -18 11 -10
-26 10 -52 11 -14 17 -30 13 -36 -3 -6 -1 -7 5 -3 7 4 12 1 12 -10 0 -13 3
-14 14 -5 16 14 61 -4 85 -33 7 -9 17 -14 21 -11 5 3 11 1 15 -5 3 -5 14 -10
23 -10 9 0 30 -7 46 -15 24 -13 31 -13 38 -3 12 19 10 28 -7 28 -8 0 -15 7
-15 15 0 8 7 15 15 15 21 0 75 -28 102 -52 12 -12 27 -17 34 -13 8 5 10 4 5
-4 -4 -6 0 -14 8 -17 18 -7 21 -40 5 -50 -6 -3 -14 -2 -18 4 -7 12 -91 21 -91
10 0 -5 -8 -8 -17 -8 -16 0 -16 2 -3 11 11 7 5 9 -25 7 -22 -1 -45 1 -51 4 -5
4 -58 8 -117 9 -59 2 -107 7 -107 11 0 4 -11 3 -25 -2 -17 -6 -25 -6 -25 1 0
6 -5 7 -11 4 -16 -10 26 -36 46 -29 10 4 15 2 13 -7 -2 -10 11 -15 47 -16 66
-3 151 -11 198 -19 33 -5 36 -4 30 12 -5 14 -3 16 11 11 10 -4 22 -7 27 -7 6
0 7 -4 4 -10 -3 -6 4 -10 17 -10 36 0 68 -11 62 -21 -3 -5 2 -9 10 -9 9 0 16
-9 16 -20 0 -11 -7 -20 -15 -20 -8 0 -15 -4 -15 -10 0 -5 6 -10 14 -10 20 0
26 -69 9 -103 -8 -15 -18 -25 -22 -23 -12 8 -47 -35 -54 -64 -5 -19 -1 -29 13
-38 17 -10 20 -23 19 -75 0 -60 -15 -170 -18 -135 -1 13 -8 17 -23 14 -16 -2
-22 -9 -20 -22 5 -24 23 -36 38 -23 8 6 13 -7 17 -48 6 -56 -6 -99 -24 -88 -5
4 -9 -2 -9 -12 0 -15 -2 -16 -10 -3 -7 11 -10 7 -10 -17 0 -17 4 -35 10 -38 6
-3 10 4 10 16 0 12 2 20 4 18 3 -2 0 -69 -5 -149 -5 -80 -10 -169 -10 -198 0
-46 -2 -51 -13 -36 -12 16 -13 15 -19 -5 -3 -13 -1 -21 8 -21 7 0 22 -8 34
-17 21 -18 21 -18 1 -43 -18 -23 -20 -23 -20 -5 0 16 -2 17 -10 5 -5 -9 -5
-17 1 -21 6 -3 7 -23 3 -45 l-6 -40 -66 8 c-121 16 -146 17 -249 18 -144 1
-153 -2 -153 -55 l0 -42 221 -6 c122 -3 223 -8 226 -10 2 -3 -3 -34 -11 -69
-9 -34 -18 -91 -21 -125 -2 -34 -9 -71 -15 -82 -6 -11 -17 -66 -25 -122 -7
-56 -16 -104 -20 -107 -12 -12 -173 167 -205 228 -7 14 -26 38 -42 54 -15 17
-28 33 -28 37 0 8 38 19 65 18 18 0 18 -1 -2 -9 -30 -12 -29 -28 2 -36 22 -5
24 -9 13 -22 -11 -13 -10 -15 4 -10 10 4 19 1 22 -8 3 -8 12 -14 20 -14 10 0
13 6 9 17 -5 12 -3 14 7 8 9 -5 11 -4 6 3 -4 7 -15 12 -24 13 -10 0 -12 3 -5
5 7 3 9 12 6 20 -3 9 2 14 18 15 21 1 20 2 -6 9 l-30 7 33 8 c36 8 44 35 10
35 -21 0 -21 0 -2 15 18 14 18 14 -7 15 -14 0 -29 3 -33 7 -4 4 -25 8 -46 8
-44 1 -83 25 -41 25 16 0 21 4 17 15 -7 18 5 20 22 3 10 -10 17 -10 31 -1 13
8 21 9 29 1 8 -8 15 -8 25 0 8 7 17 9 20 6 3 -4 30 -7 59 -9 78 -3 81 -4 75
-19 -4 -10 -1 -13 9 -9 13 5 12 9 -5 27 -29 31 -108 45 -253 46 l-128 1 0 -76
c0 -85 13 -119 59 -158 16 -13 28 -27 25 -30 -3 -3 -23 13 -45 36 -25 27 -39
36 -39 26 0 -9 9 -24 20 -34 12 -10 18 -25 15 -32 -2 -8 -1 -12 4 -9 7 5 145
-149 140 -156 -2 -3 18 -27 80 -99 18 -21 30 -39 27 -39 -4 0 3 -10 14 -22 19
-20 19 -23 5 -26 -23 -5 -65 7 -65 18 0 6 9 6 26 0 34 -13 42 -12 24 3 -8 7
-34 37 -57 67 -44 58 -77 90 -93 90 -5 0 -13 6 -17 14 -13 23 -123 138 -123
129 0 -5 18 -31 41 -58 50 -60 72 -103 29 -55 -18 19 -40 46 -51 60 -18 25
-19 22 -16 -244 l2 -269 46 -2 c53 -3 89 -19 89 -40 0 -12 -15 -15 -70 -15
l-70 0 0 -350 0 -350 813 2 c610 2 812 6 812 15 0 6 4 15 8 20 5 4 8 4 7 -2
-7 -33 0 -35 135 -35 l135 0 0 122 0 123 25 -48 c14 -26 23 -53 19 -59 -5 -7
-3 -8 6 -3 8 5 11 3 9 -4 -7 -20 -23 -14 -31 11 -5 17 -6 13 -5 -14 1 -21 5
-38 9 -38 4 0 8 -4 8 -10 0 -5 -7 -10 -15 -10 -8 0 -15 -5 -15 -11 0 -5 4 -7
10 -4 6 4 10 -7 10 -24 0 -31 23 -44 33 -18 4 9 6 9 6 0 1 -10 76 -13 342 -13
l341 0 -5 43 c-21 169 -47 493 -52 652 -3 105 -14 309 -26 455 -11 146 -22
310 -25 365 -3 55 -7 105 -9 111 -4 12 -66 5 -115 -14 -37 -14 -167 -30 -310
-40 -69 -5 -134 -12 -145 -15 -15 -6 -15 -5 2 4 25 13 38 39 20 39 -7 1 -1 7
13 15 36 19 125 32 267 40 84 5 144 14 195 30 l73 23 3 44 c6 78 -17 431 -39
583 -11 83 -23 169 -26 193 -3 23 -11 42 -18 42 -16 0 -379 -48 -435 -58 -41
-7 -45 -10 -51 -42 l-6 -35 -2 40 c-6 170 -18 292 -53 575 -23 179 -42 344
-42 367 -1 24 -5 39 -11 35 -5 -3 -4 2 3 11 8 9 11 21 7 27 -3 5 -2 10 2 10 5
0 9 9 9 20 0 25 -13 26 -19 3 -4 -16 -5 -16 -6 -1 0 9 4 20 9 23 15 10 12 35
-5 35 -18 0 -20 17 -3 22 7 3 9 14 4 33 -4 16 -10 24 -14 18 -4 -6 -7 27 -7
73 0 75 2 84 20 87 l20 4 -20 9 c-22 10 -32 34 -14 34 5 0 7 4 4 10 -10 17 6
81 19 73 6 -4 5 1 -3 10 -10 13 -10 17 -1 17 7 0 10 7 6 16 -6 16 -4 15 52
-22 44 -30 200 -81 288 -94 82 -13 180 -10 177 5 -8 54 -12 72 -18 87 -5 13
-2 16 17 14 38 -4 79 -28 73 -43 -20 -50 -20 -49 -3 -33 8 9 37 43 63 75 27
33 53 63 58 66 5 4 27 35 48 70 111 187 161 282 185 357 15 45 33 82 40 82 7
0 18 -24 25 -57 7 -32 14 -51 16 -43 2 9 13 21 23 28 18 11 21 9 30 -12 13
-35 52 -25 48 12 -2 14 -9 28 -17 30 -10 3 -12 0 -8 -12 5 -11 3 -16 -5 -14
-22 8 -20 28 3 36 l23 9 -24 6 c-13 3 -26 4 -29 2 -2 -3 2 -5 10 -5 11 0 11
-2 -1 -10 -22 -14 -27 -12 -33 9 -4 16 2 20 39 26 47 7 88 -1 79 -15 -3 -5 -1
-11 5 -15 9 -6 15 16 11 39 -1 5 6 6 15 2 14 -5 15 -4 4 9 -7 8 -16 12 -21 9
-5 -3 -9 -1 -9 5 0 20 18 20 44 0 31 -25 33 -35 5 -42 -12 -3 -18 -10 -15 -16
4 -6 13 -8 22 -4 8 3 21 -2 28 -12 9 -13 15 -15 20 -7 9 15 -1 32 -20 32 -11
0 -12 4 -4 19 7 14 6 21 -3 24 -8 4 -7 6 3 6 9 1 33 -13 55 -31 22 -18 32 -23
23 -12 -10 11 -18 28 -18 37 0 19 -10 26 -42 29 -26 2 -29 12 -29 88 l-1 45
-14 -40 c-16 -45 -54 -90 -54 -65 0 16 -39 37 -80 43 -32 4 -90 35 -90 47 0 6
-9 10 -19 10 -11 0 -26 7 -35 15 -8 8 -18 15 -23 15 -16 0 -38 35 -38 60 0 36
-14 59 -72 119 -57 58 -65 86 -34 113 19 16 20 15 28 -20 7 -30 16 -41 51 -57
23 -11 42 -24 42 -30 0 -6 9 -17 20 -25 21 -15 28 -36 8 -24 -7 4 -8 3 -4 -5
4 -6 11 -9 16 -6 5 3 13 -3 19 -12 6 -10 11 -14 11 -10 0 4 9 3 19 -3 16 -8
20 -6 24 8 4 14 5 14 6 -3 1 -15 3 -17 10 -7 5 8 31 15 66 16 57 2 85 19 85
52 0 11 -89 44 -118 44 -6 0 -12 5 -14 10 -2 6 -13 12 -25 13 -29 2 -20 14 23
32 42 17 126 4 159 -24 14 -13 28 -16 50 -10 17 3 26 7 22 8 -4 0 -3 10 4 22
8 15 8 24 0 32 -8 8 -11 6 -11 -6 0 -20 -16 -23 -23 -4 -3 9 -8 8 -22 -3 -10
-8 -16 -10 -12 -4 6 10 -7 18 -50 29 -6 2 -19 7 -28 13 -16 9 -16 11 4 31 13
13 34 21 56 21 34 0 35 1 35 39 0 36 3 40 31 46 17 4 33 13 35 20 8 20 -14 55
-30 49 -8 -3 -20 3 -27 13 -8 10 -27 24 -42 31 -34 14 -107 16 -107 2 0 -21
-51 -9 -82 20 -18 18 -25 30 -17 30 12 0 12 2 0 9 -11 7 -10 12 8 22 11 8 21
18 21 23 0 5 7 18 17 28 13 14 13 18 2 19 -8 1 -26 3 -41 5 -21 2 -28 -1 -28
-15 0 -10 -9 -28 -20 -41 -22 -25 -26 -35 -10 -25 14 9 13 1 -14 -63 -13 -31
-31 -81 -41 -110 -9 -28 -20 -50 -25 -47 -5 3 -11 1 -15 -5 -11 -18 -27 -11
-22 10 3 13 0 20 -9 20 -8 0 -14 7 -14 15 0 8 -9 19 -20 25 -11 6 -18 15 -16
19 3 5 -3 16 -14 26 -11 10 -20 25 -20 34 0 9 -14 31 -31 49 -24 25 -32 45
-34 75 -1 23 -8 43 -14 45 -7 2 -17 11 -24 19 -7 8 -20 22 -29 31 -23 21 -23
39 1 52 25 13 34 13 26 0 -3 -5 -1 -10 4 -10 6 0 11 6 11 13 0 7 5 5 11 -5 6
-10 23 -18 42 -18 18 -1 55 -2 82 -3 28 -1 67 2 88 6 26 5 37 3 37 -6 1 -8 5
-7 13 4 7 9 18 14 25 12 6 -3 12 -1 12 5 0 16 48 31 84 25 32 -5 37 -3 46 21
5 14 14 26 20 26 6 0 9 4 6 9 -3 4 3 16 14 26 11 10 20 24 20 32 0 7 5 13 11
13 5 0 7 5 4 10 -3 6 4 10 16 10 20 0 21 -3 14 -45 -5 -34 -1 -61 14 -103 27
-77 59 -150 60 -134 1 7 -4 23 -10 34 -12 21 -11 21 16 0 33 -26 42 -27 61 -8
15 16 19 30 5 22 -12 -8 -83 28 -74 38 4 4 0 4 -10 0 -12 -4 -17 -1 -17 11 0
13 6 15 33 10 17 -3 49 -13 70 -22 35 -15 39 -15 55 0 10 11 12 17 4 17 -7 0
-9 10 -6 29 5 23 1 35 -19 55 -24 24 -24 26 -6 31 10 4 19 10 19 15 0 4 6 10
13 13 7 3 13 -3 13 -13 0 -10 -3 -17 -7 -14 -4 2 -5 -5 -2 -16 6 -23 21 -17
33 14 5 14 2 42 -7 77 -28 98 -28 121 2 149 17 16 24 19 20 8 -10 -27 28 -15
42 13 l13 24 1 -25 c1 -20 3 -18 13 14 7 21 21 48 32 60 30 30 44 61 44 91 l0
27 20 -23 c16 -20 19 -21 20 -6 0 9 -4 17 -9 17 -5 0 -7 10 -4 23 3 16 2 18
-5 9 -8 -11 -10 -11 -15 1 -9 25 24 13 40 -14 14 -24 14 -24 7 6 -4 17 -8 43
-7 58 0 20 -4 26 -13 23 -8 -3 -14 -1 -14 5 0 6 16 9 37 7 48 -4 53 16 6 30
-29 9 -39 9 -45 -1 -5 -8 -8 -8 -8 -1 0 6 -9 15 -20 20 -14 7 -17 13 -10 24 8
13 10 13 10 -1 0 -9 6 -19 14 -22 11 -4 14 2 12 28 -2 25 3 40 20 56 17 16 24
18 24 8 0 -12 2 -11 10 1 9 13 11 13 20 0 10 -13 11 -13 8 0 -1 8 4 26 11 40
l12 25 -20 -25 c-16 -21 -22 -23 -33 -12 -11 11 -10 12 3 7 10 -4 19 2 27 19
10 22 8 26 -19 39 -23 11 -27 16 -15 20 9 4 22 4 29 1 8 -3 14 2 14 11 0 10
-6 13 -19 9 -20 -6 -25 11 -5 19 9 4 9 6 -1 6 -7 1 -10 5 -7 11 4 6 -1 7 -11
3 -14 -5 -16 -2 -12 21 4 21 2 26 -9 21 -12 -4 -14 1 -11 20 3 13 2 22 -2 20
-4 -2 -13 7 -20 21 -8 13 -21 24 -29 23 -9 -1 -29 4 -46 11 -16 7 -34 14 -40
14 -5 1 -15 12 -21 24 -6 13 -14 20 -16 15 -3 -4 -3 -2 -2 4 2 7 -5 17 -14 22
-10 7 -12 11 -4 11 7 0 24 -11 37 -25 14 -13 25 -20 25 -15 0 18 -53 62 -69
57 -11 -3 -17 3 -18 16 -2 15 1 17 10 8 6 -6 15 -11 20 -11 5 0 1 7 -8 16 -10
11 -24 14 -43 10 -18 -5 -22 -4 -13 3 10 6 5 11 -20 17 -19 4 -39 7 -46 6 -7
-2 -9 6 -6 19 5 18 3 21 -10 16 -10 -4 -17 -2 -17 3 0 5 -7 7 -15 4 -8 -4 -15
-1 -15 6 0 7 -7 10 -16 6 -8 -3 -12 -2 -9 3 9 16 -38 18 -78 3 -21 -8 -41 -12
-44 -8 -3 3 5 10 18 15 l24 9 -27 7 c-15 4 -31 5 -35 2 -5 -3 -33 1 -63 9 -58
15 -110 11 -110 -9 0 -7 -4 -6 -10 3 -11 17 16 44 32 33 6 -3 5 4 -1 15 -6 12
-16 24 -21 27 -6 4 -7 11 -4 17 4 6 1 9 -7 6 -8 -3 -20 1 -27 9 -11 11 -66 19
-96 14 -5 -1 -6 5 -3 14 4 8 5 15 4 14 -1 0 -9 -3 -17 -6z m231 -749 c4 -2 10
0 13 5 7 11 66 -16 66 -30 0 -5 5 -9 11 -9 5 0 7 5 3 12 -4 7 -3 8 4 4 7 -4
16 -21 20 -39 5 -18 14 -31 20 -30 6 2 9 -4 6 -11 -4 -11 1 -14 20 -12 18 2
27 -3 31 -15 4 -11 10 -19 15 -19 5 0 7 -7 4 -15 -4 -8 -2 -15 3 -15 5 0 14
-20 21 -45 17 -63 37 -92 88 -121 45 -27 49 -32 69 -109 8 -27 17 -58 20 -68
6 -13 3 -16 -10 -11 -10 4 -20 1 -25 -6 -6 -9 -13 -7 -28 8 -12 12 -24 17 -27
11 -8 -11 -37 -8 -48 6 -4 6 -12 3 -21 -7 -7 -10 -15 -15 -18 -12 -3 3 -8 -6
-11 -18 -8 -32 -47 -36 -47 -5 0 29 -15 51 -29 43 -6 -4 -11 -3 -11 3 0 5 6
12 13 15 6 4 2 4 -11 2 -12 -2 -20 0 -17 4 3 5 1 11 -5 15 -5 3 -10 0 -10 -7
0 -8 -3 -9 -8 -3 -7 10 -21 13 -82 19 -97 9 -149 19 -144 27 7 12 -3 11 -24
-2 -12 -8 -27 -8 -52 0 l-35 11 40 -5 c40 -4 40 -4 8 7 -24 8 -39 7 -61 -3
-17 -7 -28 -17 -26 -21 3 -4 -2 -8 -10 -8 -8 0 -18 5 -21 10 -4 6 -11 7 -17 4
-6 -4 -8 -2 -4 4 3 6 0 17 -8 24 -11 11 -11 17 -1 31 7 9 16 17 22 17 5 0 13
15 18 33 9 29 14 32 54 34 24 2 50 8 57 14 8 6 23 9 34 6 17 -4 18 -2 9 15 -6
11 -8 22 -5 26 3 3 6 1 6 -4 0 -5 18 -9 39 -9 31 -1 38 2 34 15 -3 8 -13 21
-21 27 -22 18 -11 24 26 14 25 -7 30 -6 25 5 -3 8 -10 11 -16 7 -6 -3 -7 -1
-3 5 4 7 14 12 22 12 22 0 -2 41 -28 48 -20 5 -20 6 -3 19 11 7 13 13 7 13 -7
0 -12 11 -12 25 0 15 6 25 14 25 10 0 12 7 8 22 -3 12 -7 17 -10 10 -5 -15
-32 -16 -32 -1 0 5 4 8 9 4 5 -3 12 -1 15 4 6 9 50 6 67 -5z m-1715 -2752 c-3
-5 -7 -46 -10 -93 -5 -66 -3 -78 5 -56 6 15 15 27 20 27 14 0 11 -20 -3 -21
-10 0 -10 -2 0 -6 6 -2 12 -19 13 -36 1 -31 1 -31 9 -7 10 32 9 53 20 -340 5
-179 12 -396 16 -482 5 -119 4 -158 -5 -158 -7 0 -5 -10 7 -27 10 -16 32 -48
47 -73 16 -25 37 -54 47 -65 9 -11 24 -40 32 -63 15 -41 15 -42 -6 -42 -21 0
-21 -1 -4 -13 17 -12 17 -14 2 -20 -9 -4 -16 -2 -16 3 0 5 -7 6 -17 3 -11 -4
-14 -3 -9 5 5 8 2 10 -9 6 -22 -9 -56 35 -52 69 2 15 0 27 -4 27 -13 0 -41 61
-35 76 3 8 -3 31 -14 52 -46 90 -87 857 -59 1123 10 98 14 119 25 119 3 0 3
-4 0 -8z m-779 -69 c12 -25 26 -39 41 -41 12 -2 22 1 22 7 0 13 39 14 58 2 7
-4 12 -14 10 -21 -2 -7 3 -15 10 -17 6 -3 12 0 12 6 0 6 8 11 18 11 16 -1 16
-1 0 -10 -10 -6 -19 -30 -23 -61 -6 -42 -11 -52 -34 -61 -14 -5 -34 -14 -44
-19 -10 -6 -22 -7 -26 -4 -5 2 -14 -2 -21 -10 -19 -23 -30 -18 -31 13 -1 16
-3 20 -6 10 -6 -23 -17 -23 -34 -1 -10 11 -10 14 -1 9 8 -5 12 0 12 13 0 14
-5 19 -15 15 -11 -4 -13 -2 -9 9 3 9 1 24 -4 34 -10 20 26 82 44 76 10 -3 11
12 5 50 0 5 -8 1 -17 -8 -20 -20 -25 -16 -17 13 8 33 31 26 50 -15z m3 -2717
c0 -7 9 -25 20 -39 24 -30 25 -50 5 -67 -19 -16 -70 -124 -85 -180 -12 -45
-16 -48 -23 -20 -3 11 -1 18 4 14 5 -3 9 -2 9 3 0 4 3 18 6 30 4 13 1 23 -8
26 -7 2 -6 3 4 2 9 -2 18 5 21 14 3 11 -12 28 -44 51 -52 37 -75 76 -64 109 4
15 21 23 63 32 31 6 51 14 43 17 -11 4 -11 6 0 13 21 13 49 11 49 -5z"/>
<path d="M117 5394 c-4 -4 -7 -16 -7 -26 0 -12 -6 -18 -17 -16 -11 2 -21 -7
-27 -27 -6 -16 -17 -36 -24 -44 -11 -11 -15 -11 -27 5 -13 17 -14 -16 -15
-253 l0 -273 35 0 c19 0 35 -4 35 -9 0 -6 -16 -7 -35 -4 -37 6 -46 -6 -20 -27
12 -10 24 -11 49 -3 20 6 40 7 47 2 11 -7 9 -9 -6 -9 -16 0 -21 -6 -20 -27 0
-26 -3 -28 -32 -25 -19 2 -33 -1 -33 -7 0 -6 7 -11 15 -11 8 0 15 -4 15 -9 0
-5 -9 -7 -20 -4 -11 3 -20 1 -20 -5 0 -15 48 -24 70 -12 10 6 21 6 24 1 3 -5
-3 -11 -14 -14 -15 -4 -18 -10 -13 -24 6 -16 5 -16 -10 -4 -15 12 -17 12 -12
-1 4 -11 -3 -17 -24 -21 -34 -7 -43 -27 -12 -27 14 0 18 -7 17 -30 -1 -20 -6
-30 -16 -30 -9 0 -16 -9 -16 -20 0 -23 7 -25 24 -8 6 6 15 8 19 4 4 -4 1 -11
-7 -16 -12 -8 -12 -10 -1 -10 11 0 11 -3 1 -15 -11 -13 -8 -15 20 -15 23 0 31
-4 27 -14 -9 -23 27 -44 71 -41 31 2 39 -1 35 -12 -3 -8 -13 -11 -23 -8 -15 5
-17 2 -13 -15 3 -12 14 -20 25 -20 17 0 19 -5 14 -26 -5 -17 -3 -23 4 -19 5 3
10 15 10 26 0 11 5 17 10 14 18 -11 50 6 50 26 0 10 -4 19 -10 19 -5 0 -10 -7
-10 -17 0 -33 -11 -4 -13 35 -2 31 1 38 12 34 9 -3 12 -1 7 6 -4 7 -2 20 4 29
8 13 10 13 7 3 -4 -12 2 -15 22 -14 34 2 33 1 21 24 -10 18 -8 20 20 20 16 0
30 5 30 10 0 6 12 10 28 9 l27 -1 -27 -11 c-16 -6 -28 -18 -28 -26 0 -12 -3
-12 -12 -3 -7 7 -17 12 -22 12 -6 0 -3 -7 7 -14 9 -7 28 -11 42 -8 26 4 33
-10 17 -35 -6 -10 -14 -9 -36 2 -15 8 -32 12 -37 9 -16 -9 1 -24 27 -24 14 0
23 -4 19 -9 -5 -9 8 -9 59 -2 4 0 6 11 3 22 -6 21 -5 21 19 -2 13 -12 27 -19
31 -16 3 4 1 7 -5 7 -7 0 -12 5 -12 10 0 6 5 10 11 10 16 0 40 -28 30 -34 -5
-4 -8 -17 -6 -31 1 -14 -2 -28 -6 -31 -19 -11 -8 -24 11 -14 16 9 20 8 20 -5
0 -10 -10 -15 -30 -15 -16 0 -30 -4 -30 -10 0 -5 6 -7 14 -4 8 3 16 -4 20 -20
4 -17 11 -23 21 -20 10 4 15 0 15 -11 0 -11 -5 -15 -15 -11 -8 3 -24 -4 -35
-16 l-20 -22 0 28 c0 15 4 25 10 21 6 -3 10 -1 10 4 0 16 -9 14 -36 -8 -14
-11 -21 -22 -16 -25 16 -10 21 -58 7 -52 -8 3 -16 -2 -19 -10 -3 -8 -16 -13
-28 -13 -17 1 -18 2 -5 6 20 5 22 19 5 26 -7 3 -1 6 15 6 15 1 27 6 27 12 0 5
-4 8 -9 4 -5 -3 -18 6 -28 19 l-19 24 -20 -23 c-13 -16 -23 -20 -31 -13 -9 7
-15 5 -19 -6 -8 -20 -34 -21 -34 -1 0 8 -4 15 -10 15 -5 0 -7 -13 -4 -30 6
-30 -9 -43 -20 -17 -4 8 -5 7 -5 -3 3 -40 -3 -52 -33 -66 -31 -14 -31 -15 -6
-11 18 3 33 -2 45 -15 10 -11 27 -18 42 -16 22 3 26 -1 24 -19 -2 -13 2 -23 7
-23 14 0 12 -27 -3 -33 -6 -3 1 -6 16 -6 21 -1 30 5 34 19 4 16 10 19 27 14
11 -4 29 -7 39 -6 10 0 16 -4 14 -11 -3 -7 -10 -11 -16 -9 -14 3 -41 -22 -41
-37 0 -6 -6 -11 -14 -11 -8 0 -17 -7 -20 -16 -5 -13 0 -12 28 4 l35 21 -20
-36 c-22 -40 -21 -44 14 -47 14 0 23 -6 20 -13 -4 -9 -11 -9 -29 -1 -31 14
-42 3 -21 -20 10 -10 17 -29 17 -41 0 -12 4 -20 9 -17 4 3 6 17 3 31 -4 22 -1
26 14 23 11 -2 18 2 17 7 -1 6 9 11 22 11 17 1 22 -2 19 -15 -5 -13 -4 -13 6
2 15 23 26 22 33 -3 4 -14 10 -18 22 -14 12 5 13 9 5 14 -7 4 -9 13 -5 20 6 9
0 11 -24 8 -37 -5 -55 11 -57 53 -2 26 0 27 20 17 11 -6 23 -12 26 -12 3 -1 5
-9 4 -18 0 -10 3 -18 8 -18 4 0 8 4 8 9 0 5 14 12 30 16 17 4 30 11 30 17 0 6
-9 8 -21 5 -26 -7 -51 2 -43 15 3 5 0 9 -7 7 -28 -3 -49 1 -49 11 0 6 9 10 20
10 17 0 18 3 10 26 -6 14 -10 31 -10 37 1 19 30 -25 30 -44 0 -11 15 -24 40
-35 22 -10 40 -21 40 -24 0 -13 39 -8 44 6 3 8 1 14 -4 14 -6 0 -10 4 -10 9 0
5 9 7 20 4 15 -4 19 -11 15 -24 -4 -11 -2 -19 4 -19 6 0 11 10 11 21 0 18 3
19 15 9 19 -16 45 9 45 44 0 20 -5 26 -22 27 -22 0 -22 1 -3 9 31 13 78 12 69
-2 -5 -8 -2 -9 10 -5 11 4 24 0 34 -10 16 -16 16 -16 0 -10 -24 9 -23 -5 2
-21 17 -10 20 -10 20 3 0 8 4 15 9 15 4 0 7 -11 5 -25 -3 -32 28 -52 46 -30
10 13 16 13 41 -1 24 -12 32 -13 42 -2 12 13 15 21 23 62 2 10 8 24 13 30 7 9
7 16 -1 24 -7 7 -8 12 -2 12 5 0 15 -5 22 -12 9 -9 12 -6 12 14 0 15 -7 29
-16 32 -15 6 -15 4 -3 -11 11 -15 10 -15 -9 1 -15 13 -19 22 -11 27 6 4 9 11
6 15 -8 13 20 47 32 39 20 -11 32 5 16 21 -10 11 -24 14 -46 9 -28 -6 -29 -8
-12 -21 17 -14 16 -15 -7 -8 -35 9 -46 11 -37 7 12 -8 8 -20 -8 -20 -8 0 -15
6 -15 14 0 7 -5 13 -10 13 -7 0 -7 7 1 21 9 17 13 19 19 8 7 -11 20 -9 72 9
83 29 94 28 102 -8 3 -19 12 -30 23 -31 14 0 13 -2 -4 -9 -32 -13 -29 -30 5
-29 24 0 25 1 7 9 -19 8 -19 9 2 9 12 1 29 -6 38 -15 9 -9 19 -14 22 -10 4 3
-2 13 -13 21 -10 8 -15 15 -11 15 14 0 -13 40 -28 40 -8 0 -15 5 -15 10 0 6 8
10 17 10 13 0 14 3 5 12 -7 7 -12 20 -12 30 0 10 -6 18 -14 18 -8 0 -18 5 -22
11 -4 8 0 9 15 4 19 -6 21 -3 21 27 -1 30 -2 31 -12 13 -16 -29 -16 -29 -32
-13 -11 12 -12 18 -3 27 8 8 5 11 -12 11 -16 0 -21 4 -18 14 4 9 -3 16 -16 20
-33 9 -37 7 -31 -9 5 -12 2 -14 -12 -8 -16 6 -17 5 -6 -9 10 -13 10 -17 0 -20
-7 -3 -3 -7 10 -10 15 -4 22 -2 22 8 0 20 17 17 22 -4 6 -23 -6 -57 -21 -58
-6 -1 -17 -2 -23 -3 -9 -1 -8 -4 2 -11 13 -8 13 -10 -2 -10 -9 0 -21 -7 -26
-16 -5 -9 -15 -14 -21 -10 -6 4 -9 12 -6 17 3 5 -1 6 -10 3 -11 -5 -18 0 -22
15 -3 12 -13 21 -24 21 -17 0 -23 -12 -22 -47 0 -6 -8 -14 -18 -16 -11 -3 -19
-1 -19 5 0 5 -5 6 -10 3 -18 -11 -40 16 -40 47 0 25 3 29 20 25 22 -6 28 8 7
16 -23 9 -37 -8 -42 -47 -3 -21 -11 -44 -19 -52 -18 -18 -32 -18 -17 -1 10 13
6 27 -8 27 -4 0 -15 -22 -26 -50 -11 -28 -26 -50 -34 -50 -11 0 -10 -4 4 -20
10 -11 27 -20 37 -20 11 0 16 -4 13 -10 -3 -5 -1 -10 4 -10 15 0 14 -27 -2
-33 -7 -3 -5 -6 6 -6 34 -2 16 -16 -22 -16 -32 -1 -40 3 -51 28 -14 32 -19 97
-8 97 5 0 8 4 8 10 0 5 -5 9 -12 7 -7 -1 -12 5 -13 13 0 9 -8 14 -20 12 -17
-2 -17 -1 -5 8 13 9 13 11 0 21 -13 9 -13 10 2 6 9 -4 19 1 22 10 4 9 10 13
14 9 7 -8 8 -13 11 -43 1 -16 3 -16 11 -3 9 13 11 13 20 0 7 -11 10 -11 10 -2
0 7 -7 15 -15 18 -8 4 -15 15 -15 25 0 10 -4 19 -10 19 -5 0 -7 8 -4 18 5 16
5 16 -6 0 -6 -10 -15 -18 -20 -18 -15 0 -50 33 -50 48 0 7 -7 15 -15 18 -8 4
-15 13 -15 21 0 8 -4 11 -10 8 -6 -4 -7 1 -3 11 6 16 8 15 16 -4 12 -27 31
-29 22 -3 -3 12 -1 21 7 24 7 2 6 3 -3 2 -9 -1 -24 6 -33 16 -15 18 -14 19 2
20 10 0 12 3 5 6 -19 7 -15 27 8 41 12 7 19 16 16 19 -9 8 -47 -17 -47 -31 0
-9 -8 -12 -24 -9 -19 4 -23 10 -20 35 4 28 2 30 -21 24 -15 -4 -25 -2 -25 4 0
6 5 8 12 4 8 -5 9 0 6 14 -4 12 -1 25 4 29 7 3 8 1 4 -5 -4 -7 -2 -12 4 -12 6
0 8 -4 5 -10 -9 -14 4 -12 18 3 19 20 20 40 2 34 -8 -4 -15 -2 -15 2 0 5 12
14 28 20 15 6 42 20 60 31 25 15 32 17 32 5 0 -8 9 -13 24 -12 30 2 35 -17 6
-21 -20 -3 -29 -22 -10 -22 6 0 10 -4 10 -9 0 -5 -12 -8 -27 -5 -25 4 -26 2
-12 -9 11 -8 34 -11 60 -8 24 2 38 6 31 8 -18 7 -4 23 21 23 21 1 21 2 -5 21
-28 20 -38 59 -17 59 6 0 9 -7 6 -15 -4 -8 -2 -17 2 -20 5 -2 11 8 13 25 2 16
1 27 -2 25 -4 -2 -16 2 -26 11 -18 14 -18 15 5 8 16 -4 21 -3 17 5 -10 16 16
23 45 12 17 -7 19 -10 7 -10 -10 -1 -18 -5 -18 -11 0 -13 6 -13 31 0 13 8 19
7 19 0 0 -7 9 -9 23 -5 15 4 18 3 8 -3 -8 -6 -9 -12 -3 -16 6 -3 13 0 15 6 4
10 7 10 15 0 5 -7 16 -10 25 -6 10 3 17 1 17 -5 0 -6 6 -8 14 -5 8 3 12 12 9
20 -4 11 3 13 33 9 28 -3 35 -2 26 7 -13 13 -82 17 -99 6 -6 -5 -23 -6 -37 -2
-21 5 -24 9 -15 20 13 16 -2 19 -17 4 -7 -7 -33 -2 -79 13 -54 18 -64 25 -47
29 12 4 22 3 22 -2 0 -4 7 -10 15 -14 11 -4 10 3 -5 32 -22 41 -25 62 -9 62 5
0 8 -4 5 -8 -5 -9 28 -42 42 -42 4 0 13 -9 20 -20 10 -17 10 -20 -5 -20 -17
-1 -17 -1 0 -11 20 -12 67 12 67 34 0 8 4 7 10 -3 7 -10 12 -12 18 -4 4 6 16
16 27 22 17 10 17 11 3 12 -9 0 -20 -5 -23 -10 -4 -6 -11 -8 -16 -4 -5 3 -16
1 -24 -6 -10 -8 -15 -8 -20 0 -4 6 0 17 10 23 10 8 14 19 9 31 -5 12 -9 14
-14 6 -5 -8 -9 -7 -13 3 -3 9 0 18 8 21 7 2 16 -2 19 -10 6 -17 94 -57 106
-49 5 3 21 -11 36 -32 14 -21 24 -30 21 -21 -4 10 -2 20 3 23 6 4 10 16 10 28
0 19 3 18 20 -11 24 -40 26 -62 3 -62 -13 0 -14 -3 -5 -12 7 -7 16 -8 24 -2 7
6 43 9 81 8 75 -2 96 10 39 22 -55 12 -72 12 -72 3 0 -5 -9 -4 -20 3 -11 7
-20 20 -20 28 0 9 3 11 8 4 4 -6 18 -8 31 -4 23 5 23 6 6 24 -10 9 -26 15 -36
13 -11 -3 -21 -1 -24 3 -3 5 -13 7 -23 5 -9 -2 -21 -4 -26 -4 -4 -1 -6 -10 -3
-21 3 -11 1 -18 -3 -15 -5 3 -11 23 -15 45 -4 22 -11 37 -17 34 -5 -3 -7 -12
-4 -20 3 -8 1 -14 -4 -14 -17 0 -11 20 16 56 25 32 22 48 -4 22 -6 -6 -15 -8
-19 -4 -4 4 0 12 10 17 9 6 15 14 12 20 -4 5 1 9 10 9 9 0 14 -4 11 -9 -3 -4
5 -8 17 -8 43 -1 49 -3 44 -17 -9 -22 35 -56 71 -56 18 0 32 4 32 9 0 4 -11 7
-25 6 -23 -3 -24 -2 -9 21 13 20 14 26 2 36 -7 7 -22 15 -33 16 -26 5 -46 22
-39 33 3 5 -2 6 -10 3 -9 -3 -16 -12 -16 -20 0 -17 -10 -17 -32 0 -10 7 -21
33 -24 58 -8 57 -20 79 -33 59 -5 -7 -6 -23 -4 -35 5 -21 5 -21 -10 -1 -9 12
-14 32 -11 50 5 26 4 27 -6 12 -7 -11 -10 -30 -7 -43 5 -26 -26 -54 -38 -34
-10 16 -25 12 -25 -7 -1 -17 -1 -17 -14 -1 -7 10 -16 15 -19 11 -4 -3 -7 1 -7
10 0 9 -5 17 -11 17 -5 0 -7 -4 -4 -10 4 -6 -1 -7 -11 -3 -14 5 -16 2 -12 -15
4 -12 3 -24 -1 -26 -4 -3 -8 6 -9 19 -1 13 3 27 8 30 6 4 7 12 4 18 -4 7 -4 9
1 5 11 -10 35 10 31 25 -1 7 -1 9 1 5 2 -4 11 -4 20 -1 9 4 21 -1 30 -12 13
-18 14 -18 31 -1 16 16 16 18 -3 32 -11 8 -21 11 -23 6 -1 -5 -14 -7 -28 -4
-14 2 -23 10 -21 16 3 6 11 9 18 7 54 -13 73 -5 44 19 -19 16 -87 31 -79 18 8
-12 -26 -3 -70 18 -37 18 -39 18 -32 -2 3 -8 2 -12 -4 -9 -6 4 -18 -1 -27 -10
-9 -10 -26 -15 -40 -12 -12 2 -28 -2 -34 -10 -10 -11 -15 -11 -35 2 -26 17
-33 5 -9 -15 23 -19 19 -43 -5 -35 -16 5 -20 2 -20 -19 0 -21 -5 -26 -25 -26
-31 0 -33 15 -2 25 20 7 20 8 -8 12 -16 2 -41 9 -54 16 -19 9 -25 9 -35 -5 -7
-9 -17 -13 -24 -9 -13 8 -5 51 10 51 5 0 7 -4 4 -8 -3 -5 8 -6 24 -4 18 2 35
-2 44 -11 9 -8 25 -13 36 -10 23 6 27 23 5 23 -8 0 -15 -5 -15 -11 0 -5 -4 -7
-10 -4 -15 9 -12 25 4 25 8 0 18 5 22 12 5 7 3 8 -6 3 -8 -5 -11 -4 -6 3 4 6
14 8 23 5 11 -4 14 -3 9 6 -6 8 2 11 28 8 19 -2 33 0 30 4 -3 5 -12 9 -20 9
-17 0 -19 16 -3 26 7 4 9 21 5 44 -5 29 -2 39 10 44 12 5 15 2 12 -11 -4 -15
2 -18 31 -18 42 1 64 -14 49 -32 -6 -7 -14 -10 -19 -7 -5 3 -6 -2 -3 -11 4 -9
13 -14 21 -11 8 3 11 1 8 -4 -7 -12 9 -11 45 0 18 6 20 8 7 9 -10 1 -15 6 -12
11 3 6 -1 10 -9 10 -9 0 -16 5 -16 11 0 5 4 8 8 5 4 -2 14 -1 21 3 11 7 11 13
0 32 -14 25 -20 45 -21 69 0 8 -5 21 -11 28 -14 17 -37 -3 -37 -33 0 -13 -6
-26 -12 -28 -10 -4 -10 -6 -1 -6 20 -1 3 -31 -18 -31 -12 0 -16 5 -13 14 3 9
-3 17 -16 21 -14 4 -19 12 -15 22 3 10 -3 21 -14 30 -11 7 -18 19 -15 26 2 7
-5 18 -16 25 -25 15 -27 4 -2 -14 15 -12 15 -13 -10 -14 -29 0 -46 15 -26 23
7 3 0 6 -16 6 -25 1 -27 -1 -15 -15 10 -12 10 -17 0 -23 -8 -6 -10 -20 -6 -43
6 -30 4 -36 -14 -41 -12 -3 -21 -1 -21 5 0 5 -4 6 -10 3 -6 -4 -10 5 -10 19 0
14 -4 26 -9 26 -9 0 -26 41 -30 75 0 5 -8 -1 -17 -13 -8 -12 -21 -22 -28 -22
-9 0 -12 -9 -8 -25 2 -14 9 -25 14 -25 6 0 8 -9 5 -20 -3 -12 1 -33 9 -48 12
-24 12 -27 -2 -30 -8 -2 -13 -10 -10 -17 3 -8 -3 -16 -12 -18 -9 -3 -1 -5 18
-6 26 0 31 2 20 9 -12 8 -10 10 8 10 13 0 37 9 53 21 24 17 29 18 29 5 0 -9
-11 -18 -25 -22 -24 -6 -35 -24 -15 -24 6 0 10 -13 10 -30 0 -16 -4 -30 -10
-30 -5 0 -7 6 -4 14 3 8 1 17 -4 20 -5 3 -12 -4 -15 -15 -4 -15 -11 -20 -21
-16 -9 4 -28 2 -42 -4 -34 -12 -45 -2 -19 17 20 15 20 15 1 30 -23 16 -36 18
-36 4 0 -5 10 -10 23 -10 16 0 18 -3 8 -9 -7 -5 -22 -6 -32 -4 -22 6 -18 39 7
59 8 6 14 17 13 25 -2 30 -56 113 -83 129 -16 8 -32 24 -35 33 -4 10 -10 15
-14 11z"/>
<path d="M3665 5020 c-4 -6 -10 -8 -15 -5 -34 21 -60 -46 -36 -92 8 -16 17
-45 21 -66 6 -30 4 -37 -8 -37 -9 0 -21 8 -26 18 -8 14 -11 14 -12 2 -1 -8 -1
-21 0 -27 1 -7 -2 -13 -7 -13 -5 0 -15 21 -23 48 -13 44 -16 47 -51 49 -21 1
-37 -1 -37 -5 3 -19 -15 -52 -27 -50 -7 2 -20 -6 -28 -17 -11 -14 -15 -16 -16
-6 0 8 7 23 17 33 9 11 11 18 5 18 -7 0 -12 5 -12 11 0 5 5 7 10 4 14 -9 13 8
-2 23 -18 18 -42 15 -69 -8 -20 -18 -22 -24 -10 -42 11 -17 11 -22 -1 -29 -18
-12 -28 -11 -29 4 -1 6 -2 17 -4 22 -1 6 -3 16 -3 23 -1 6 -12 12 -24 12 -21
-1 -22 -2 -5 -14 21 -16 23 -66 2 -66 -9 0 -15 -9 -15 -25 0 -21 -5 -25 -28
-25 -37 0 -43 -7 -30 -36 14 -30 31 -31 23 -1 -5 19 -4 20 5 5 6 -10 21 -18
33 -18 33 0 67 -11 67 -22 0 -5 -6 -6 -12 -2 -10 6 -10 4 0 -7 6 -7 12 -28 12
-45 0 -35 15 -53 32 -36 7 7 6 17 -1 31 -9 16 -9 21 0 21 8 0 6 6 -4 18 -15
17 -15 18 3 19 11 1 22 -2 25 -8 4 -5 -2 -6 -12 -2 -15 6 -16 4 -6 -9 7 -8 10
-18 6 -21 -3 -4 0 -13 7 -22 7 -8 9 -15 5 -15 -5 0 0 -9 10 -20 10 -11 23 -20
29 -20 6 0 17 -13 24 -28 11 -25 18 -29 57 -30 35 0 48 4 55 19 6 10 15 19 19
19 10 0 24 -30 17 -37 -7 -8 -167 -43 -189 -42 -17 1 -18 2 -4 6 9 2 17 8 17
13 0 5 -7 7 -15 4 -9 -4 -18 1 -22 12 -13 38 -44 67 -73 71 -16 1 -32 -2 -36
-9 -4 -6 -3 -8 4 -4 23 14 21 -13 -3 -28 -15 -10 -26 -12 -30 -6 -3 6 -1 10 4
10 6 0 11 5 11 10 0 6 -9 10 -21 10 -11 0 -18 4 -14 10 3 5 13 6 23 3 10 -4
14 -2 9 3 -5 5 -19 9 -32 9 -21 1 -22 -1 -12 -20 6 -11 10 -26 9 -33 -4 -15
56 -42 77 -34 9 3 12 1 7 -6 -5 -8 -2 -10 9 -6 22 9 48 -15 35 -31 -23 -27 47
-33 105 -9 48 20 115 28 160 20 30 -6 34 -10 26 -25 -7 -13 -6 -18 4 -18 7 0
11 6 8 14 -3 7 0 13 6 13 16 0 44 -48 38 -64 -10 -26 4 -24 38 7 19 17 35 39
35 50 0 13 6 18 23 15 19 -3 22 -10 25 -54 3 -45 0 -52 -23 -64 -14 -7 -25
-18 -25 -24 0 -6 -41 -49 -91 -95 -64 -59 -88 -88 -84 -99 3 -9 3 -13 -1 -9
-11 11 -54 -58 -70 -113 -10 -35 -12 -56 -5 -68 7 -14 6 -19 -4 -19 -7 0 -11
7 -8 16 4 14 3 14 -5 1 -6 -8 -9 -17 -7 -21 3 -3 -5 -15 -16 -25 -22 -20 -22
-23 -2 61 10 45 26 74 36 68 5 -3 7 -1 4 4 -4 6 16 55 43 109 28 55 49 107 46
117 -2 9 -1 15 3 12 9 -5 31 39 31 62 0 9 -11 0 -25 -21 -14 -20 -30 -42 -35
-49 -6 -7 -17 -21 -24 -31 -13 -19 -14 -18 -21 13 -5 26 -10 30 -17 20 -8 -12
-9 -11 -5 1 2 8 9 16 15 16 7 1 17 2 22 3 6 0 10 12 10 25 0 14 5 28 10 31 30
18 -27 75 -75 75 -19 0 -37 5 -40 10 -3 6 -1 10 6 10 7 0 10 3 6 6 -8 9 -48
-6 -42 -16 3 -5 0 -12 -6 -16 -8 -5 -9 -3 -4 6 6 10 4 12 -10 7 -9 -4 -23 -3
-30 3 -8 7 -12 5 -12 -5 0 -8 5 -11 11 -8 6 3 -2 -8 -18 -25 -17 -18 -32 -32
-34 -32 -3 0 3 9 13 20 19 21 7 28 -13 8 -7 -7 -12 -9 -12 -5 0 3 9 15 20 25
l21 19 -33 16 c-60 27 -82 31 -75 13 4 -9 -4 -27 -18 -43 -20 -23 -24 -25 -25
-10 0 38 -20 4 -20 -36 0 -50 -16 -84 -20 -43 -1 14 -3 49 -4 76 0 28 -5 50
-9 50 -5 0 -6 4 -3 8 2 4 -22 9 -55 10 -32 1 -59 -1 -59 -3 0 -3 9 -14 20 -25
12 -12 18 -26 14 -32 -5 -7 -10 -3 -16 11 -6 19 -11 21 -22 12 -16 -13 -32 2
-21 19 3 6 2 10 -3 10 -10 0 -22 -23 -22 -44 0 -7 14 -28 30 -46 17 -18 30
-38 30 -44 0 -6 -8 1 -17 14 -9 14 -23 30 -31 35 -7 6 -17 26 -21 45 -6 31 -8
32 -23 17 -9 -9 -18 -13 -20 -7 -2 5 -9 6 -16 1 -10 -6 -9 -20 6 -67 l18 -59
59 -20 c33 -12 77 -29 97 -38 21 -9 40 -17 44 -17 14 0 65 -43 75 -63 10 -22
10 -22 -7 -2 l-17 20 8 -20 c13 -33 9 -103 -6 -122 -9 -10 -15 -25 -14 -33 0
-8 -6 -20 -15 -27 -12 -9 -12 -14 -3 -24 10 -10 9 -16 -3 -31 -16 -16 -15 -17
13 -14 23 3 29 0 29 -15 0 -10 -4 -19 -8 -19 -12 0 -6 -53 7 -70 15 -18 26
-60 31 -119 2 -23 10 -57 19 -74 8 -16 15 -40 16 -51 1 -19 2 -18 10 4 9 28
10 35 -12 -135 -11 -82 -8 -310 6 -600 l4 -80 -14 75 c-10 55 -13 64 -13 35 0
-61 -1 -67 -12 -60 -5 3 -10 1 -10 -5 0 -6 6 -13 13 -16 7 -2 13 -20 14 -39 1
-29 -3 -34 -26 -38 -20 -3 -18 -4 11 -6 33 -1 37 2 41 27 4 25 4 25 6 -5 0
-18 -2 -33 -6 -33 -60 0 -305 -24 -358 -35 -38 -8 -137 -24 -220 -36 -82 -12
-154 -25 -158 -29 -5 -4 -2 -56 7 -116 32 -223 47 -384 53 -558 l6 -179 91 6
c276 19 620 36 624 32 3 -3 -2 -5 -12 -5 -10 0 -24 -7 -32 -15 -14 -13 -13
-15 7 -15 14 0 19 -4 13 -9 -5 -5 -76 -14 -159 -20 -121 -9 -518 -46 -534 -50
-5 -1 8 -239 19 -336 5 -44 12 -141 15 -215 4 -74 9 -138 11 -141 2 -4 4 -67
4 -140 1 -74 8 -215 16 -314 8 -99 19 -238 24 -310 6 -72 13 -142 16 -157 l6
-28 903 0 904 0 4 23 4 22 2 -22 c1 -21 6 -23 61 -23 49 0 58 3 54 15 -4 8
-11 15 -16 15 -6 0 -8 11 -6 24 4 17 1 23 -9 19 -11 -5 -15 2 -12 23 0 4 -3
10 -8 13 -15 11 -48 56 -33 45 8 -6 29 -11 45 -12 28 -1 28 0 10 11 -19 11
-24 22 -30 57 -1 8 0 10 2 4 5 -16 82 -44 88 -34 6 10 -29 32 -38 24 -3 -3 -3
3 0 15 3 12 1 21 -6 21 -6 0 -11 5 -11 11 0 5 6 7 13 3 6 -4 -1 5 -16 19 -15
15 -32 27 -38 27 -5 0 -9 9 -9 21 0 11 -4 18 -9 14 -6 -3 -8 10 -5 31 3 21 0
33 -5 30 -5 -4 -12 -2 -16 4 -3 5 -1 10 6 10 10 0 10 3 2 11 -7 7 -9 24 -6 39
3 16 -2 41 -12 60 -11 20 -12 29 -4 24 9 -5 10 -2 6 10 -4 10 -7 23 -7 29 0 7
-5 6 -11 -3 -8 -11 -9 -7 -5 18 3 20 1 32 -5 32 -6 0 -8 7 -5 16 5 14 4 15 -9
4 -9 -7 -19 -10 -23 -6 -4 4 4 16 18 26 18 15 21 20 9 20 -12 0 -18 13 -23 48
-9 71 -9 73 -8 125 l2 47 25 -16 c14 -9 25 -25 25 -35 0 -41 43 -129 80 -167
22 -22 40 -48 40 -58 0 -38 51 -151 71 -160 17 -8 21 -20 23 -57 1 -30 10 -57
24 -76 27 -37 31 -71 5 -50 -14 12 -16 12 -11 -1 3 -8 14 -14 25 -13 15 2 24
-11 43 -67 25 -72 24 -92 -4 -65 -15 15 -16 15 -16 -3 0 -18 31 -62 43 -62 4
0 4 8 0 18 -3 9 8 -3 25 -28 18 -25 32 -51 32 -57 0 -10 85 -13 389 -13 302 0
390 3 394 13 4 10 6 10 6 0 1 -20 97 -17 105 3 10 26 7 29 -9 8 -13 -17 -14
-15 -9 27 5 38 3 50 -13 66 -11 11 -25 17 -31 15 -7 -2 -12 6 -12 17 0 13 7
21 18 22 14 0 14 2 -3 9 -11 5 -16 9 -11 9 5 1 3 7 -3 15 -8 10 -24 12 -52 9
-23 -3 -44 -1 -48 4 -3 5 -15 15 -26 21 -16 9 -9 11 46 12 37 0 70 5 77 12 7
7 12 9 12 5 0 -4 6 -2 14 5 20 18 4 42 -45 70 -29 16 -39 27 -35 41 3 15 2 16
-10 7 -10 -9 -22 -9 -44 -2 -21 8 -39 8 -60 0 -38 -13 -88 -2 -71 15 8 8 14 8
23 -1 7 -7 17 -12 22 -12 6 0 4 5 -4 10 -20 13 43 14 87 1 25 -7 33 -6 37 5 4
10 2 13 -7 8 -9 -6 -9 -4 1 8 10 13 10 17 0 21 -7 2 -10 8 -5 12 4 5 19 -2 33
-16 l27 -24 -13 25 c-7 14 -35 49 -62 78 -26 30 -46 58 -43 62 3 5 1 11 -5 15
-5 3 -10 13 -10 22 0 29 -30 42 -62 26 -28 -15 -37 -36 -18 -48 13 -8 3 -25
-16 -25 -8 0 -14 7 -14 15 0 9 -9 15 -25 15 -25 0 -33 14 -15 25 27 17 -51 58
-95 50 -30 -5 -30 -5 5 11 59 27 333 3 314 -27 -3 -5 -1 -9 5 -9 5 0 13 9 16
21 7 21 30 21 30 -1 0 -7 9 -16 20 -21 30 -12 40 -10 27 3 -7 7 -12 21 -12 33
0 11 -8 28 -19 37 -10 8 -21 22 -24 29 -5 12 -7 12 -16 -1 -5 -8 -7 -18 -4
-23 3 -5 9 -4 13 3 5 8 9 7 14 -5 3 -9 6 -18 6 -20 0 -6 -35 0 -41 8 -3 5 -13
1 -22 -8 -15 -15 -18 -15 -39 4 -12 12 -25 21 -30 21 -8 0 -33 20 -78 61 -15
13 -18 18 -9 11 11 -9 19 -10 23 -3 7 11 -10 50 -22 52 -4 1 -23 3 -42 5 -19
3 -41 5 -47 6 -19 2 -16 11 7 26 12 7 20 8 20 2 0 -5 7 -10 15 -10 8 0 15 5
15 10 0 6 8 10 18 10 10 1 3 7 -15 15 -23 10 -31 19 -27 29 5 12 0 16 -20 16
-14 0 -31 6 -38 14 -11 11 -16 9 -34 -12 -22 -24 -44 -23 -44 2 0 18 -55 40
-97 39 -18 -1 -36 3 -39 8 -3 5 45 9 113 9 105 0 124 -3 171 -25 63 -29 62
-29 62 -10 0 8 -5 15 -11 15 -5 0 -7 5 -4 10 3 6 1 10 -5 10 -6 0 -8 5 -4 12
5 8 0 9 -14 6 -14 -4 -20 -2 -16 4 4 6 -2 8 -16 3 -16 -5 -20 -4 -15 5 4 7 20
10 36 8 34 -5 40 9 7 16 -56 12 -60 15 -20 13 31 -2 42 1 42 12 0 28 -44 146
-60 161 -9 8 -14 23 -12 32 4 20 13 23 28 8 8 -8 15 -6 23 4 10 12 9 14 -8 9
-13 -3 -21 -1 -21 7 0 7 -6 10 -14 7 -7 -3 -18 -1 -24 5 -7 7 -20 7 -41 0 -31
-11 -68 -9 -80 4 -3 4 6 4 22 2 15 -3 27 -1 27 3 0 5 18 9 39 9 22 0 42 4 45
9 9 14 -22 34 -43 28 -14 -3 -18 -1 -14 9 4 10 0 12 -11 8 -9 -3 -16 -2 -16 4
0 5 -10 13 -22 17 l-23 8 23 4 c13 3 37 0 53 -6 20 -7 38 -7 56 0 15 5 34 7
42 4 9 -4 29 -8 45 -11 35 -4 47 -14 18 -14 -23 0 -29 -14 -12 -25 6 -3 10 -2
10 3 0 6 6 10 13 9 48 -1 58 3 47 22 -13 26 -13 31 4 31 7 0 20 -12 27 -28 14
-27 30 -34 45 -19 4 4 2 7 -5 7 -7 0 -9 5 -6 10 3 6 -1 10 -9 10 -9 0 -16 7
-16 16 0 9 5 12 12 8 7 -4 8 -3 4 5 -4 6 -10 9 -14 7 -4 -2 -13 2 -19 10 -24
26 7 26 38 0 30 -26 56 -35 44 -16 -3 5 1 10 9 10 28 0 26 -18 -4 -30 -27 -11
-29 -14 -13 -25 9 -7 38 -11 67 -10 28 2 57 -2 64 -7 9 -8 11 -7 7 4 -5 12 0
14 22 10 15 -3 31 -10 35 -16 6 -8 8 -8 8 1 0 6 3 18 6 27 4 11 -2 19 -17 26
-23 10 -23 10 4 7 15 -3 30 0 33 5 3 4 10 6 15 3 5 -4 9 -1 9 4 0 6 6 11 14
11 9 0 14 -9 13 -20 -1 -12 -7 -18 -14 -16 -7 3 -13 1 -13 -4 0 -6 -5 -9 -12
-7 -20 4 -20 -31 0 -42 17 -9 19 -8 15 10 -5 18 -3 20 16 14 12 -4 21 -2 21 4
0 6 5 11 11 11 5 0 8 -4 5 -9 -4 -5 4 -6 16 -3 19 5 20 7 6 10 -20 4 -25 22
-6 22 9 0 9 3 0 12 -17 17 -15 28 7 28 25 0 34 25 14 42 -9 7 -18 12 -20 11
-16 -13 -21 3 -8 27 18 34 12 70 -11 70 -8 0 -14 7 -14 16 0 8 -3 13 -8 10 -4
-2 -16 2 -27 10 -10 8 -14 14 -9 14 6 0 14 -3 18 -7 4 -4 17 -7 29 -8 37 0 72
-36 74 -74 1 -37 8 -46 39 -55 16 -5 20 -2 19 12 -2 29 -16 44 -37 39 -16 -5
-17 -3 -7 9 7 8 20 12 30 9 14 -5 19 -1 19 14 0 12 5 21 10 21 6 0 10 -5 10
-11 0 -5 5 -7 10 -4 6 3 10 1 10 -5 0 -6 8 -10 18 -8 22 4 24 45 5 75 -17 25
-7 30 20 9 10 -8 15 -20 11 -29 -9 -24 15 -31 37 -11 17 15 22 16 29 5 5 -9
15 -11 26 -6 17 6 15 9 -11 21 -28 12 -26 13 33 9 34 -2 76 0 92 5 19 5 28 5
25 -1 -4 -5 5 -9 19 -9 16 0 25 -5 23 -12 -2 -15 81 -19 90 -5 2 4 11 2 19 -4
9 -7 14 -8 12 -3 -7 21 43 19 68 -4 14 -13 27 -16 49 -11 l30 7 -32 1 c-24 1
-33 6 -33 19 0 13 2 14 9 4 5 -8 17 -12 27 -10 11 2 24 -3 31 -12 9 -12 14
-13 24 -3 7 7 24 13 37 13 14 0 21 4 17 11 -4 6 2 5 14 -3 12 -7 21 -18 21
-25 0 -7 5 -13 11 -13 7 0 9 10 7 24 -4 19 -1 22 14 18 11 -3 17 -10 14 -18
-3 -9 1 -14 12 -14 14 0 15 -2 2 -10 -12 -8 -12 -10 3 -16 10 -4 16 -13 13
-20 -6 -16 10 -19 19 -4 4 7 13 6 27 -1 15 -8 19 -8 14 0 -4 6 -4 11 1 12 4 0
17 2 27 4 11 2 27 0 37 -5 14 -8 17 -6 14 15 -2 22 2 25 28 25 54 0 14 22 -42
23 -56 2 -66 11 -24 21 16 5 29 3 33 -4 5 -8 9 -7 13 4 4 9 13 16 22 16 8 0
15 5 15 10 0 6 -12 8 -27 5 -24 -5 -25 -4 -10 5 9 6 15 16 11 21 -3 6 5 7 23
4 21 -5 24 -4 13 4 -8 5 -12 13 -8 16 3 3 13 -1 21 -10 9 -8 20 -15 26 -15 17
0 24 -22 10 -32 -10 -7 -8 -8 9 -5 12 3 22 1 22 -4 0 -5 5 -9 11 -9 6 0 8 9 3
22 -6 20 -5 21 10 9 9 -8 19 -11 23 -8 3 4 11 3 17 -2 6 -4 21 -11 33 -13 31
-8 18 20 -16 34 -21 9 -23 12 -8 15 9 3 14 9 10 15 -4 8 0 9 11 5 10 -4 30 -7
44 -8 l27 0 -25 -11 -25 -10 28 -10 c27 -10 37 -28 15 -28 -6 0 -9 -2 -6 -5 3
-3 17 0 32 6 l26 12 -2 441 -3 441 -22 3 c-17 3 -21 -1 -17 -12 4 -11 0 -13
-15 -9 -11 3 -30 -2 -43 -11 -22 -15 -15 -21 20 -17 18 3 15 -12 -7 -31 -13
-11 -18 -24 -14 -37 7 -27 -4 -27 -26 1 -12 14 -20 17 -25 10 -4 -6 5 -19 21
-29 56 -35 55 -58 -3 -58 -46 -1 -77 27 -69 63 5 19 2 22 -17 18 -35 -6 -118
-49 -112 -57 3 -5 31 -7 64 -6 64 2 101 -17 84 -45 -16 -26 -13 -38 6 -28 26
14 30 13 30 -10 0 -13 -5 -18 -15 -13 -9 3 -24 -2 -35 -12 -12 -11 -29 -16
-44 -13 -15 3 -23 1 -20 -4 4 -5 -6 -23 -22 -39 -20 -21 -31 -26 -40 -18 -7 6
-20 9 -30 7 -9 -2 -19 3 -21 10 -4 9 4 11 28 7 18 -3 37 -8 42 -12 5 -3 1 7
-9 23 l-18 29 22 -19 c18 -15 25 -17 35 -7 9 9 7 13 -11 17 -12 4 -19 10 -16
15 3 5 9 7 14 4 4 -3 13 2 20 10 12 15 4 20 -22 16 -4 0 -4 7 -1 16 5 13 2 15
-11 10 -10 -4 -20 -7 -23 -7 -3 0 0 -6 6 -13 8 -11 5 -19 -13 -35 -21 -18 -26
-19 -37 -6 -16 19 -31 18 -80 -8 -34 -17 -42 -19 -50 -7 -20 31 -10 41 36 37
25 -2 45 0 45 4 0 5 6 8 14 8 8 0 18 5 22 11 4 8 -13 9 -59 4 -75 -8 -112 5
-102 35 5 15 2 18 -16 15 -30 -6 -34 -12 -20 -29 15 -18 -4 -30 -62 -41 -29
-6 -38 -4 -43 9 -7 17 -44 22 -44 6 0 -5 7 -10 15 -10 8 0 15 -4 15 -10 0 -5
7 -10 16 -10 8 0 12 -5 9 -10 -4 -6 -13 -7 -24 -1 -20 11 -136 4 -162 -10 -10
-5 -24 -6 -32 -3 -8 3 -18 1 -22 -5 -11 -20 24 -24 51 -6 26 17 74 14 74 -5 0
-6 4 -10 10 -10 5 0 7 7 4 14 -5 12 4 14 43 11 32 -3 56 1 71 11 29 19 68 15
64 -7 -1 -9 4 -19 13 -23 22 -8 18 -29 -4 -23 -17 4 -18 2 -11 -19 8 -20 6
-24 -10 -24 -24 0 -37 20 -19 31 9 6 10 9 2 9 -23 0 -26 -23 -5 -41 28 -22 28
-29 0 -28 -13 0 -32 -1 -43 -3 -15 -2 -20 2 -19 20 0 14 -5 22 -16 22 -9 0
-21 5 -27 11 -8 8 -19 6 -39 -7 l-27 -18 5 27 c4 22 3 25 -8 16 -8 -6 -11 -15
-8 -20 3 -5 -3 -12 -13 -16 -10 -3 -29 -15 -42 -25 -27 -20 -41 -16 -41 13 0
18 4 20 30 14 18 -4 30 -3 30 3 0 16 -30 42 -48 42 -10 0 -26 9 -36 21 -15 18
-24 20 -64 14 -62 -8 -82 -15 -82 -25 0 -5 -6 -7 -13 -4 -7 2 -21 -1 -30 -9
-17 -12 -17 -13 2 -14 12 -1 21 2 21 7 0 4 10 6 22 2 13 -3 19 -1 15 5 -7 12
85 26 108 16 19 -7 19 -19 0 -27 -9 -3 -15 0 -15 9 0 18 -12 19 -28 3 -7 -7
-24 -12 -38 -13 -35 0 -55 -32 -43 -65 8 -18 12 -21 18 -11 5 7 14 10 20 7 6
-4 11 -2 11 3 0 6 7 11 16 11 11 0 14 -5 10 -16 -3 -9 -6 -20 -6 -25 0 -4 -7
-6 -15 -3 -22 9 -18 -5 6 -24 12 -11 18 -23 14 -33 -6 -15 -11 -14 -53 7 -57
29 -63 30 -54 5 4 -11 10 -19 14 -18 3 1 17 -8 30 -21 14 -12 28 -19 32 -15 3
4 14 8 23 9 12 2 13 0 4 -9 -13 -13 -15 -31 -2 -22 5 3 12 2 15 -3 3 -5 0 -9
-7 -9 -7 0 -22 -3 -33 -7 -17 -5 -27 0 -42 19 -19 23 -62 35 -62 16 0 -4 -13
-8 -28 -7 -22 1 -28 5 -24 19 5 20 13 22 30 5 15 -15 15 -3 0 21 -14 23 3 71
26 71 7 0 16 10 19 23 5 19 4 20 -6 6 -8 -11 -25 -15 -50 -14 -49 3 -57 12
-22 25 22 8 25 13 16 24 -8 10 -9 16 -1 21 5 3 10 1 10 -5 0 -6 5 -8 10 -5 6
4 7 11 4 17 -8 13 -76 2 -117 -19 -31 -15 -46 -19 -94 -22 -14 -1 -23 -7 -23
-18 0 -15 -1 -15 -18 1 -18 15 -20 15 -42 -4 -13 -11 -27 -20 -32 -20 -10 0
-11 17 0 23 4 2 0 2 -8 -1 -8 -2 -26 -7 -40 -9 -22 -4 -23 -3 -9 9 9 7 15 24
13 38 -1 14 -3 25 -4 25 -1 0 -3 8 -5 18 -5 29 -12 30 -19 2 -8 -32 -43 -34
-56 -2 -5 12 -9 16 -9 9 -2 -25 22 -49 43 -45 13 3 17 2 9 -4 -6 -5 -10 -21
-9 -36 2 -15 -1 -27 -6 -27 -5 0 -6 -9 -3 -20 10 -32 -2 -23 -28 21 -23 38
-25 39 -32 17 -4 -13 -6 -30 -5 -37 1 -8 -6 -20 -15 -27 -21 -15 -21 -23 1
-38 9 -7 14 -18 10 -24 -10 -17 -26 -15 -26 4 0 10 -6 14 -14 11 -8 -3 -17 -3
-20 0 -3 4 -20 8 -36 10 l-31 3 21 -22 c24 -26 27 -50 5 -42 -8 4 -15 10 -15
16 0 5 -8 7 -19 3 -13 -4 -21 1 -26 17 -4 13 -7 26 -7 29 1 3 -6 6 -13 6 -11
0 -12 -4 -4 -13 18 -22 1 -74 -23 -74 -12 0 -18 3 -15 6 10 11 -12 44 -30 44
-12 0 -13 3 -4 13 12 15 -3 37 -25 37 -7 0 -16 5 -20 12 -5 8 -2 9 10 5 14 -6
16 -3 11 14 -5 13 -3 19 3 15 5 -3 12 4 16 16 5 22 6 22 19 4 11 -14 20 -17
46 -11 25 5 30 10 21 20 -7 8 -9 24 -6 37 3 13 3 17 0 11 -11 -24 -24 -13 -19
15 3 15 2 21 -1 15 -3 -7 -10 -13 -15 -13 -6 0 -8 4 -5 8 2 4 -4 9 -15 9 -11
1 -17 -2 -14 -7 3 -6 -1 -7 -9 -4 -9 3 -16 9 -16 13 0 4 -7 8 -15 8 -10 0 -12
-4 -5 -12 7 -8 4 -17 -9 -29 -17 -15 -20 -15 -34 -2 -13 13 -16 13 -20 1 -3
-7 -1 -16 6 -19 7 -3 1 -3 -12 0 -16 4 -21 3 -17 -5 4 -6 13 -11 20 -11 8 0
18 -6 24 -13 8 -9 2 -12 -24 -12 -27 0 -39 7 -55 30 -12 17 -19 22 -15 13 3
-12 0 -18 -10 -18 -9 0 -12 5 -8 13 5 7 1 7 -10 -2 -10 -8 -15 -23 -13 -33 3
-11 0 -18 -9 -18 -17 0 -18 14 -3 42 7 13 7 18 0 14 -5 -4 -15 3 -22 15 -10
19 -9 21 4 16 9 -3 18 -1 20 6 3 9 8 9 18 0 7 -7 23 -13 36 -13 13 0 23 -4 23
-9 0 -16 38 0 43 19 3 14 -2 19 -23 22 -34 5 -52 -1 -44 -14 3 -5 -2 -4 -13 2
-20 13 -29 50 -12 50 5 0 8 6 7 13 -2 7 5 11 17 9 20 -4 20 -3 1 11 -18 13
-19 16 -4 31 9 9 26 16 37 16 18 0 25 10 23 31 -2 9 58 20 69 13 5 -3 9 -1 9
3 0 5 12 9 27 8 19 0 31 7 40 25 8 17 9 26 2 29 -6 2 2 15 18 30 23 21 27 29
17 38 -6 7 -14 10 -16 8 -2 -2 -5 6 -5 18 -1 12 -7 23 -13 25 -5 2 -10 8 -10
14 0 6 6 6 15 -2 12 -10 15 -10 15 4 0 9 5 16 10 16 15 0 12 -40 -2 -41 -7 0
-4 -4 7 -9 27 -12 43 -12 25 0 -12 8 -12 10 -1 10 11 0 11 3 1 15 -10 12 -10
15 2 15 8 0 20 -6 28 -12 8 -7 6 0 -5 17 l-18 30 32 -29 c30 -29 40 -43 22
-32 -13 8 -42 -4 -35 -15 3 -5 10 -7 15 -4 5 3 6 0 3 -8 -3 -8 1 -18 8 -23 7
-4 10 -4 6 1 -4 4 -1 13 6 20 13 14 66 9 66 -6 0 -5 7 -9 15 -9 18 0 19 5 4
33 -17 31 -30 37 -52 25 -13 -7 -17 -7 -13 0 8 14 -12 65 -23 58 -4 -3 -16 3
-26 14 -13 14 -14 20 -5 20 9 0 8 6 -5 20 -24 27 -15 34 21 15 16 -8 35 -15
42 -15 7 0 10 -5 7 -10 -4 -6 -10 -8 -15 -5 -4 3 -6 -3 -3 -14 3 -13 11 -17
26 -13 12 3 16 7 9 10 -6 2 -12 8 -12 13 0 6 4 7 10 4 6 -4 6 4 -1 22 -6 15
-10 29 -10 31 4 12 -1 22 -10 22 -8 0 -7 -6 2 -17 12 -15 12 -16 -3 -10 -9 3
-19 1 -21 -6 -3 -8 -10 -7 -24 6 -11 9 -25 17 -31 17 -7 0 -12 4 -12 10 0 8
-50 40 -64 40 -6 0 5 -43 16 -57 6 -7 4 -13 -4 -16 -9 -3 -7 -11 10 -29 12
-13 22 -27 22 -30 0 -8 -27 -4 -36 5 -12 12 -26 8 -18 -5 4 -7 3 -8 -5 -4 -6
4 -9 11 -7 15 6 8 -14 31 -58 69 -16 13 -25 26 -21 30 3 4 11 -1 16 -11 6 -9
16 -17 23 -17 7 0 19 -11 26 -25 19 -36 31 -31 16 8 -7 19 -10 46 -5 67 3 19
7 30 8 24 0 -6 7 -11 14 -11 6 0 24 -4 40 -8 16 -4 27 -3 27 3 0 6 -18 13 -40
17 -23 4 -40 12 -40 20 0 21 23 23 44 3 27 -25 29 -18 7 24 l-18 36 -18 -24
-18 -25 -29 28 c-35 33 -37 19 -3 -17 17 -17 23 -33 19 -44 -5 -13 -9 -14 -20
-5 -12 10 -13 9 -8 -5 4 -11 1 -16 -10 -16 -9 0 -19 7 -22 15 -4 8 -10 15 -16
15 -5 0 -7 -4 -3 -9 3 -6 -3 -15 -14 -20 -16 -9 -21 -7 -27 11 -6 21 -7 21
-20 3 -8 -10 -14 -14 -14 -8 0 7 5 15 10 18 6 3 10 10 10 14 0 16 -84 91 -104
92 -17 1 -17 2 -4 6 16 4 17 7 3 34 -16 30 -13 37 8 19 52 -44 73 -60 80 -60
11 0 9 7 -9 24 -14 15 -14 16 0 16 9 0 16 -7 16 -15 0 -8 7 -15 15 -15 20 0
19 17 -4 45 -14 19 -21 21 -31 12 -10 -9 -14 -9 -17 1 -3 6 -12 12 -21 12 -14
0 -14 2 -3 9 8 5 21 7 30 4 9 -3 6 2 -6 11 -13 10 -23 24 -23 32 0 8 -5 14
-12 14 -9 0 -9 3 0 12 10 10 15 10 22 -2 6 -9 10 -10 10 -3 0 6 -4 15 -10 18
-5 3 -10 11 -10 16 0 6 4 8 9 5 5 -3 11 8 15 24 5 28 26 43 26 19 0 -5 5 -7
12 -3 6 4 17 -1 24 -11 8 -10 16 -16 19 -14 3 3 -4 15 -15 27 -22 23 -26 42
-10 42 6 0 10 -5 10 -12 0 -7 7 -5 18 5 24 22 66 12 59 -14 -7 -26 10 -34 18
-9 5 14 15 20 38 20 41 0 23 20 -21 23 -34 2 -45 17 -13 17 27 0 34 15 16 33
-8 9 -15 22 -15 29 0 11 -2 11 -9 0 -6 -10 -10 -8 -16 10 l-8 23 -4 -24 c-4
-22 -6 -22 -30 15 -23 38 -24 38 -18 9 4 -16 10 -32 13 -35 7 -5 32 -47 32
-53 0 -2 -13 -2 -29 1 -27 4 -29 2 -24 -19 6 -21 4 -22 -9 -12 -8 7 -17 10
-20 7 -7 -7 -48 27 -48 39 0 5 8 3 17 -4 11 -10 14 -10 9 -1 -4 7 -1 12 8 12
9 0 16 9 16 20 0 11 -5 20 -11 20 -5 0 -8 4 -5 9 10 16 -21 33 -41 22 -23 -12
-49 1 -38 19 4 7 9 22 10 34 1 11 3 25 4 30 0 4 8 6 16 2 9 -3 15 0 15 8 0 9
-7 12 -21 9 -19 -5 -20 -4 -8 15 7 11 17 18 21 16 4 -3 8 0 8 5 0 15 -29 14
-43 -1 -7 -7 -12 -23 -11 -35 1 -14 -3 -20 -12 -16 -8 3 -12 8 -9 12 2 4 -2 8
-10 8 -9 0 -13 -8 -11 -21 2 -12 9 -20 15 -18 9 2 9 -4 0 -20 -8 -14 -14 -18
-17 -10 -2 6 -8 12 -13 12 -4 0 -6 -7 -3 -15 3 -8 -1 -23 -9 -35 -12 -18 -15
-19 -21 -5 -4 10 -2 14 6 9 7 -5 8 -3 4 5 -5 7 -14 10 -21 7 -13 -5 -39 40
-30 53 2 5 -2 16 -9 27 -11 15 -18 16 -37 8 -21 -10 -50 -11 -96 -6 -7 1 -13
7 -13 12 0 7 6 7 19 0 25 -13 41 -13 41 0 0 15 -49 24 -74 12 -16 -7 -27 -6
-39 3 -10 7 -26 11 -37 8 -16 -4 -17 -8 -7 -24 9 -14 14 -16 26 -6 12 9 13 9
7 0 -4 -7 -2 -13 3 -13 6 0 10 -3 10 -7 -4 -24 4 -25 16 -3 l14 25 -3 -33 c-2
-18 0 -35 5 -38 5 -3 9 -19 9 -35 0 -18 -4 -28 -10 -24 -5 3 -10 15 -10 25 0
27 -14 34 -84 39 -12 1 -16 6 -12 17 5 13 3 14 -7 6 -10 -8 -13 -7 -14 8 -1
15 -12 35 -59 109 -2 1 -8 0 -13 -4 -8 -4 -6 -13 4 -28 8 -12 15 -26 15 -32 0
-5 -8 4 -19 20 -13 21 -15 34 -8 43 11 14 37 16 37 2 0 -5 7 -10 16 -10 8 0
13 -3 11 -7 -5 -7 41 -9 103 -4 l25 1 -25 20 c-28 22 -55 27 -44 8 5 -10 4
-10 -6 -1 -9 8 -19 9 -31 3 -13 -7 -22 -5 -34 6 -8 9 -22 14 -29 11 -18 -7
-101 71 -110 103 -7 24 -6 24 8 6 9 -11 16 -26 16 -34 0 -7 4 -11 9 -8 5 3 14
-1 21 -9 7 -8 17 -12 22 -9 6 4 14 0 19 -7 7 -11 9 -10 9 4 0 17 14 21 60 17
20 -2 22 0 11 13 -10 13 -9 15 11 11 13 -2 18 -2 11 2 -10 4 -10 10 0 27 7 12
15 24 18 27 3 3 6 22 6 43 0 29 -4 37 -19 37 -19 0 -25 25 -8 35 6 3 10 1 10
-4 0 -6 5 -11 10 -11 17 0 11 29 -9 40 -14 7 -21 6 -24 -3 -3 -9 -9 -9 -23 -1
-26 15 -29 34 -5 34 12 0 24 7 27 15 9 21 32 19 39 -5 9 -30 26 -24 23 7 -2
21 2 28 17 31 16 3 18 1 8 -9 -10 -10 -7 -15 17 -26 34 -14 47 -13 41 2 -8 21
-7 51 2 63 6 8 5 12 -2 12 -6 0 -11 7 -11 15 0 17 -16 20 -25 5 -8 -13 -45
-13 -45 -1 0 5 10 12 23 14 l22 4 -23 2 c-19 1 -22 5 -16 23 4 13 13 27 21 33
19 14 -2 57 -37 77 -34 20 -56 1 -34 -30 12 -17 12 -21 -2 -26 -8 -3 -13 -10
-10 -15 3 -5 -2 -15 -11 -22 -13 -11 -15 -11 -9 -1 8 14 -10 42 -27 42 -5 0
-3 -8 5 -17 9 -10 13 -24 11 -30 -3 -8 4 -13 15 -13 11 0 23 6 25 13 3 6 3 -2
0 -19 -3 -20 0 -34 11 -43 17 -15 22 -36 6 -26 -5 3 -10 1 -10 -4 0 -6 -4 -11
-10 -11 -5 0 -7 6 -5 13 3 6 -10 29 -29 49 -24 26 -33 44 -29 58 3 11 1 20 -5
20 -6 0 -8 8 -6 18 3 9 -4 27 -15 39 -27 28 -27 37 -1 23 16 -8 24 -7 36 4 8
8 21 13 29 10 16 -6 21 11 6 20 -8 5 -7 25 4 79 5 25 3 27 -27 28 -27 0 -29 2
-13 8 11 5 26 6 34 3 9 -3 12 -1 7 6 -3 6 -22 10 -42 8 -24 -2 -33 1 -30 10 3
7 -1 15 -8 17 -7 3 -16 17 -18 31 -3 14 -1 23 3 20 5 -3 9 4 9 15 0 17 -5 20
-30 18 -17 -2 -36 -9 -42 -15 -7 -7 -18 -12 -26 -12 -7 0 -10 -4 -7 -10 3 -5
2 -10 -4 -10 -5 0 -14 6 -18 14 -5 9 -15 11 -28 5 -15 -5 -16 -8 -4 -8 9 -1
24 -9 33 -20 16 -18 16 -19 -11 -16 -15 1 -36 6 -45 10 -9 3 -25 2 -35 -4 -30
-15 -61 12 -33 29 9 6 9 13 0 30 -14 26 -1 21 38 -14 15 -13 26 -17 30 -10 4
6 15 13 25 17 33 12 13 34 -25 28 -5 0 -8 6 -8 14 0 8 7 15 15 15 8 0 15 7 15
15 0 8 -9 15 -20 15 -11 0 -23 0 -27 0 -5 0 -9 -9 -9 -20 -2 -34 -11 -33 -12
2 0 17 -8 35 -17 40 -8 5 -25 19 -36 31 -16 16 -23 18 -26 9 -4 -10 -8 -10
-18 -2 -10 8 -24 8 -49 1 -20 -5 -37 -8 -37 -5 -2 6 -6 23 -8 30 0 4 -7 2 -13
-3 -7 -6 -32 -8 -55 -5 -40 4 -43 6 -43 33 0 22 -6 30 -25 35 -35 9 -44 -3
-17 -22 12 -8 22 -20 22 -25 0 -6 -7 -3 -16 5 -8 9 -20 16 -25 16 -5 0 -9 17
-10 38 0 34 -1 35 -11 15 -6 -13 -15 -23 -20 -23 -4 0 -8 -7 -8 -16 0 -8 -4
-13 -9 -9 -5 3 -17 -5 -25 -17 -13 -18 -18 -20 -28 -10 -10 10 -10 17 0 32 13
22 7 47 -19 73 -32 30 -45 19 -41 -35 3 -31 -31 12 -47 59 -14 42 -14 42 -31
23 -10 -11 -25 -20 -33 -20 -19 0 -36 29 -29 49 3 9 0 11 -8 6 -10 -6 -12 0
-7 30 5 28 2 44 -8 55 -8 9 -17 32 -19 51 -3 19 -5 36 -5 39 -1 2 -6 -1 -13
-8 -23 -23 -78 -5 -78 27 0 15 -18 23 -25 11z m-85 -365 c0 -19 42 -43 48 -26
3 9 7 9 17 1 10 -8 19 -8 34 2 17 10 25 10 41 0 12 -7 25 -10 30 -7 6 4 10 3
10 -2 0 -4 23 -9 52 -11 60 -3 68 -7 67 -30 -1 -15 -2 -15 -6 1 -2 9 -12 17
-21 17 -13 0 -14 -2 -4 -9 10 -6 10 -10 -3 -21 -14 -12 -13 -15 6 -37 20 -20
19 -27 -2 -25 -13 2 -17 -37 -5 -47 14 -12 76 13 76 30 0 13 38 49 52 49 4 0
8 -7 8 -16 0 -11 6 -14 23 -8 12 4 25 12 29 18 5 7 8 5 8 -6 0 -9 -5 -18 -12
-20 -7 -3 -9 -12 -4 -23 5 -14 9 -16 18 -7 7 7 21 12 32 12 12 0 17 -4 11 -8
-12 -8 -13 -37 -3 -48 4 -4 10 1 14 10 7 18 24 12 24 -8 0 -17 -35 -27 -48
-14 -13 13 -23 -5 -12 -22 7 -12 12 -12 22 -2 25 25 42 9 28 -28 -1 -3 -2 -8
-1 -12 1 -10 -3 -10 -23 -2 -9 3 -13 10 -10 15 3 5 -2 6 -10 3 -9 -3 -16 -10
-16 -15 0 -5 -9 -9 -20 -9 -13 0 -20 -7 -20 -19 0 -27 -17 -35 -35 -17 -22 21
-19 39 5 33 23 -6 25 1 5 27 -7 10 -18 15 -24 11 -14 -8 -14 1 0 27 10 18 9
20 -5 15 -9 -4 -16 -2 -16 3 0 6 -7 10 -15 10 -19 0 -20 -16 -1 -27 8 -5 11
-15 7 -26 -6 -15 -10 -14 -42 13 -20 16 -39 27 -43 25 -3 -3 -4 -2 -2 1 2 3
-5 15 -17 27 -24 25 -79 47 -117 47 -37 0 -70 11 -70 22 0 6 13 8 30 5 17 -4
30 -2 30 3 0 6 -4 10 -10 10 -5 0 -10 4 -10 9 0 5 10 7 22 3 14 -3 19 -2 14 6
-4 7 -2 12 3 12 6 0 11 -13 11 -30 0 -22 5 -30 18 -30 13 0 14 2 4 9 -10 6 -8
10 10 15 14 5 18 9 10 13 -6 2 -10 9 -6 14 10 16 23 9 19 -11 -4 -23 7 -32 29
-24 15 6 15 8 -1 20 -13 9 -14 13 -4 14 8 0 4 8 -10 21 -21 18 -22 20 -4 14
16 -5 18 -4 7 7 -11 11 -16 9 -31 -11 -11 -14 -23 -21 -30 -17 -8 6 -9 12 -2
20 8 10 4 11 -19 8 -17 -2 -30 0 -30 6 0 5 -11 9 -25 8 -16 0 -23 -6 -20 -13
2 -7 3 -13 1 -13 -3 0 -12 -3 -22 -7 -12 -4 -15 -3 -10 5 5 8 2 10 -8 6 -9 -3
-16 -11 -16 -16 0 -6 -9 -8 -20 -5 -11 3 -20 1 -20 -4 0 -13 -20 -11 -33 4
-15 16 -21 40 -7 32 5 -3 13 1 16 9 3 9 10 14 14 11 4 -3 10 2 14 10 3 8 0 15
-7 15 -8 0 -6 4 3 10 21 14 30 12 30 -5z m834 -270 l30 -6 -25 -13 c-15 -7
-24 -21 -25 -36 -2 -49 -3 -51 -29 -44 -14 3 -25 2 -25 -2 1 -14 30 -49 30
-36 0 7 7 12 15 12 14 0 20 12 16 33 -1 5 8 5 20 2 13 -5 25 -2 31 6 7 10 8 8
5 -8 -6 -25 -8 -24 81 -25 28 0 55 -4 58 -9 3 -5 -3 -9 -14 -9 -10 0 -19 -6
-19 -14 0 -8 5 -13 11 -11 6 2 24 6 40 10 26 5 28 4 17 -9 -11 -13 -10 -17 5
-23 11 -4 24 -12 31 -19 9 -9 6 -11 -12 -11 -13 0 -26 6 -29 13 -3 8 -12 14
-20 14 -13 0 -14 -5 -6 -27 9 -25 9 -26 -4 -10 -19 25 -48 12 -40 -19 5 -20 3
-23 -15 -19 -23 4 -27 -5 -9 -23 8 -8 8 -12 1 -12 -15 0 -23 24 -16 48 2 11 0
23 -6 26 -7 4 -8 1 -5 -8 7 -18 3 -19 -20 -10 -9 3 -13 11 -9 17 4 6 0 8 -9 5
-13 -5 -14 -3 -4 18 6 13 17 24 25 24 18 0 6 13 -14 16 -8 1 -15 -4 -15 -12 0
-8 -4 -14 -10 -14 -5 0 -7 7 -4 15 5 11 2 13 -10 9 -9 -3 -23 -1 -31 6 -12 10
-15 10 -15 -3 0 -9 8 -21 18 -26 15 -9 15 -10 -5 -11 -26 0 -29 -9 -10 -30 10
-12 9 -12 -6 -1 -14 11 -23 11 -42 3 -31 -14 -33 -32 -4 -32 15 0 19 4 15 16
-5 14 -4 15 8 4 14 -10 14 -14 1 -27 -8 -8 -20 -11 -27 -7 -7 5 -9 2 -6 -8 4
-10 0 -14 -15 -13 -11 1 -23 7 -25 13 -2 8 -15 6 -40 -6 -49 -22 -49 -22 -29
-33 9 -6 15 -14 12 -20 -6 -9 7 -13 31 -10 6 1 17 -6 24 -14 14 -17 35 -21 25
-5 -3 6 -1 10 5 10 7 0 10 -6 7 -12 -2 -8 11 -17 32 -24 l36 -10 -37 -5 c-21
-3 -35 -3 -33 0 3 2 -10 15 -27 28 -22 16 -34 19 -39 12 -4 -6 -12 -8 -19 -4
-7 4 -16 2 -20 -5 -5 -9 -17 -7 -48 9 -22 11 -42 26 -44 33 -7 19 15 87 29 90
9 2 10 8 3 18 -9 13 -11 13 -20 0 -9 -13 -10 -13 -11 0 -1 8 -1 18 0 23 0 4
-4 7 -10 7 -5 0 -7 5 -4 10 3 6 15 10 26 10 10 0 19 7 19 15 0 9 9 15 23 14
17 -1 18 -2 4 -6 -9 -2 -15 -9 -11 -14 3 -5 10 -7 15 -3 6 3 13 -3 16 -15 6
-24 23 -28 23 -6 0 8 -4 15 -10 15 -16 0 -12 17 6 24 23 9 46 -13 39 -35 -4
-11 -2 -19 4 -19 6 0 11 5 11 12 0 9 3 9 12 0 17 -17 29 -15 22 3 -4 8 -12 15
-20 15 -8 0 -14 4 -14 9 0 17 32 42 46 37 18 -7 18 -1 0 17 -9 9 -11 19 -5 28
5 8 9 9 9 2 0 -6 9 -9 20 -6 22 6 27 23 8 23 -9 0 -8 3 2 10 12 7 12 12 -4 28
-11 13 -14 22 -6 27 5 3 8 11 4 16 -4 7 0 7 12 0 11 -5 32 -13 48 -16z m-518
-249 c27 -79 48 -176 103 -481 62 -344 70 -407 85 -615 8 -107 19 -208 25
-223 6 -16 11 -46 11 -68 0 -37 -2 -40 -22 -33 -31 9 -38 22 -36 69 1 46 -21
202 -51 360 -11 61 -27 146 -35 190 -42 235 -112 541 -126 555 -9 8 -10 11 -2
5 12 -8 13 -2 8 35 -4 25 -14 73 -23 108 -16 66 -12 88 10 58 12 -16 13 -16
14 4 1 12 -5 24 -13 27 -8 3 -14 11 -14 19 0 23 23 65 33 61 6 -2 21 -34 33
-71z m1175 -971 c21 0 38 -5 37 -10 -2 -6 -9 -9 -15 -7 -22 5 -14 -5 20 -27
17 -11 26 -21 18 -21 -7 0 -11 -6 -8 -15 5 -11 0 -13 -26 -8 l-32 6 29 -27
c15 -15 25 -30 22 -33 -3 -4 -12 2 -20 12 -8 11 -20 16 -29 12 -8 -3 -21 1
-28 9 -10 12 -9 13 7 8 15 -5 16 -4 8 5 -8 9 -18 10 -30 3 -11 -5 -25 -7 -31
-5 -19 7 -16 -11 7 -37 11 -13 20 -26 20 -29 0 -4 20 -29 44 -55 39 -44 46
-48 75 -41 26 5 37 2 56 -15 13 -12 26 -17 29 -12 3 5 -1 15 -9 22 -22 18 -18
32 5 18 11 -7 20 -20 20 -28 0 -8 11 -20 25 -27 15 -6 25 -7 25 -1 0 5 5 6 11
3 6 -5 4 -12 -8 -21 -11 -8 -13 -13 -5 -14 12 0 34 -41 26 -49 -1 -2 -15 6
-30 18 -15 11 -23 21 -18 21 5 1 -4 7 -21 15 -16 7 -24 14 -17 14 6 1 12 5 12
10 0 6 -9 9 -20 8 -11 -1 -20 -3 -20 -5 0 -2 16 -22 35 -45 25 -29 32 -43 23
-48 -17 -10 -28 -1 -21 16 5 15 -33 36 -101 56 l-29 8 23 -24 c12 -13 19 -28
15 -34 -7 -12 -55 38 -55 57 0 6 -6 13 -12 15 -7 3 -3 6 10 6 31 1 28 21 -4
21 -17 0 -37 12 -59 37 -19 21 -31 40 -29 43 3 2 9 -2 13 -9 6 -9 11 -10 15
-2 4 6 -5 19 -23 29 -16 9 -33 27 -36 39 -3 13 -10 23 -15 23 -5 0 -2 12 5 28
11 20 12 28 3 31 -7 2 -14 -1 -16 -7 -2 -7 -13 -12 -25 -12 -19 1 -20 2 -5 10
10 6 15 19 13 31 -3 17 -2 19 10 9 14 -12 39 -5 31 9 -3 4 0 13 5 21 8 13 10
13 19 0 8 -13 10 -12 10 4 0 16 2 17 16 5 9 -7 33 -13 55 -14z m-955 -468 c8
3 21 -3 29 -13 8 -11 15 -15 15 -10 0 5 10 1 21 -10 22 -19 22 -19 10 3 -6 13
-7 24 -2 28 14 8 25 -15 27 -60 1 -22 0 -30 -3 -18 -5 26 -33 39 -45 21 -6 -9
-7 -5 -3 10 9 33 -1 27 -14 -8 -9 -28 -9 -30 10 -20 29 16 35 7 32 -47 -1 -26
-2 -60 -2 -75 -1 -31 -30 -45 -59 -29 -20 11 -49 68 -39 77 3 3 2 17 -3 30 -8
19 -6 27 10 36 14 9 16 15 8 25 -6 7 -12 28 -14 46 -1 17 0 27 2 20 3 -7 12
-9 20 -6z m394 -2210 c0 -8 -6 -14 -12 -15 -30 -2 -86 -13 -135 -26 -28 -8
-55 -11 -58 -8 -3 4 -3 -2 1 -12 4 -11 9 -14 14 -6 4 6 7 -3 7 -20 0 -16 -3
-28 -5 -25 -3 3 -15 -12 -27 -32 -21 -39 -55 -57 -55 -29 0 9 -3 15 -7 15 -26
-4 -35 4 -14 12 39 15 17 21 -27 7 -28 -9 -42 -19 -44 -33 -4 -26 -22 -26 -26
1 -2 13 5 24 20 32 23 11 23 11 1 11 -12 1 -31 -11 -42 -25 -12 -15 -21 -22
-21 -15 0 6 -4 11 -10 11 -5 0 -10 -7 -10 -15 0 -10 -10 -15 -30 -15 -16 0
-30 4 -30 9 0 5 -10 7 -22 3 -18 -4 -20 -2 -16 16 9 33 -12 26 -25 -8 -12 -32
-21 -37 -33 -18 -5 7 -3 8 5 3 9 -5 12 -2 9 11 -2 11 -11 19 -21 19 -10 0 -22
6 -26 14 -5 7 -14 10 -20 7 -6 -4 -9 -12 -5 -17 3 -6 -3 -5 -15 3 -29 18 -18
22 164 52 88 15 178 31 200 36 33 8 42 6 53 -7 6 -9 12 -24 12 -32 0 -9 7 -24
14 -34 13 -16 14 -16 20 5 9 35 6 57 -4 33 -8 -19 -9 -18 -9 4 -1 13 -9 30
-18 38 -10 8 -13 12 -8 9 12 -5 232 37 242 47 10 10 13 8 13 -6z"/>
<path d="M981 4973 c-1 -24 14 -39 23 -24 8 13 66 -10 66 -26 0 -7 5 -13 10
-13 6 0 10 5 10 12 0 6 9 3 20 -7 11 -10 20 -24 20 -31 0 -7 9 -16 20 -19 11
-4 20 -15 20 -27 0 -17 4 -19 25 -14 19 5 25 2 25 -9 0 -13 7 -15 38 -9 49 9
51 10 45 35 -4 13 -11 18 -21 14 -13 -5 -13 -3 -1 11 13 16 12 16 -8 4 -12 -8
-21 -16 -21 -19 2 -26 -3 -31 -21 -19 -16 10 -17 15 -8 26 9 11 7 13 -8 11
-22 -4 -45 7 -45 21 0 4 9 6 20 3 12 -3 20 0 20 7 0 8 -10 11 -29 8 -18 -3
-27 0 -24 5 3 5 -4 17 -16 27 -20 15 -21 18 -7 29 12 10 16 10 16 2 0 -7 5 -9
10 -6 6 4 8 10 5 14 -6 11 -55 11 -55 0 0 -5 -11 -7 -25 -5 -14 3 -25 0 -25
-6 0 -6 -9 -3 -20 7 -15 14 -23 15 -34 6 -11 -9 -15 -9 -19 1 -3 7 -6 3 -6 -9z"/>
<path d="M7351 4824 c-18 -9 -28 -10 -42 -1 -24 15 -50 -6 -31 -25 17 -17 15
-28 -7 -28 -23 0 -37 -16 -19 -23 7 -2 9 -8 5 -13 -5 -5 -17 2 -27 16 -18 23
-20 24 -21 5 -1 -17 -2 -16 -9 5 l-8 25 -1 -28 c-1 -16 -5 -26 -11 -22 -5 3
-10 0 -10 -7 0 -10 -2 -10 -9 1 -5 7 -14 10 -20 7 -7 -5 -11 2 -12 16 l0 23
-9 -22 c-5 -13 -13 -23 -17 -23 -12 0 -35 16 -36 26 -1 5 -5 8 -9 7 -5 -2 -8
2 -8 8 0 17 -21 -1 -30 -27 -7 -18 -17 -24 -38 -24 -26 0 -28 -3 -24 -30 3
-23 0 -30 -12 -30 -9 0 -16 -4 -16 -9 0 -5 -9 -13 -20 -16 -11 -3 -20 -13 -20
-21 0 -8 -7 -14 -15 -14 -8 0 -15 -4 -15 -10 0 -5 4 -10 9 -10 6 0 13 5 16 10
8 12 55 13 55 1 0 -13 -27 -21 -45 -15 -9 4 -15 0 -15 -9 0 -8 -11 -18 -25
-21 -17 -4 -25 -13 -25 -29 0 -18 -2 -19 -10 -7 -9 13 -14 8 -11 -12 0 -4 -8
-6 -19 -5 -12 1 -20 8 -20 19 0 10 -4 18 -8 18 -7 0 -25 -92 -34 -172 -1 -10
-6 -18 -10 -18 -4 0 -8 -6 -8 -14 0 -8 -10 -13 -25 -13 -26 0 -34 12 -12 20 6
3 2 6 -11 6 -13 1 -22 -4 -21 -11 3 -29 -2 -45 -22 -66 -11 -12 -18 -26 -15
-31 3 -4 -24 -8 -59 -8 -68 0 -90 -8 -65 -23 12 -7 7 -11 -18 -16 -23 -5 -29
-9 -21 -15 22 -13 -19 -23 -44 -11 l-22 11 22 6 c12 4 24 13 27 21 7 19 -20
30 -38 15 -8 -6 -31 -14 -52 -16 -43 -6 -59 -15 -25 -15 12 0 19 -4 16 -10 -4
-6 1 -7 12 -4 14 4 13 1 -5 -15 -22 -20 -58 -19 -46 1 4 6 1 14 -7 18 -10 7
-10 11 1 25 12 15 12 18 -4 27 -13 7 -14 13 -6 23 14 17 -26 28 -52 14 -11 -6
-27 -8 -35 -5 -9 4 -21 -1 -29 -11 -18 -25 -17 -31 6 -35 18 -3 18 -4 -4 -14
-20 -9 -23 -9 -19 2 4 10 0 12 -13 7 -12 -4 -15 -3 -10 5 4 7 1 12 -8 12 -21
0 -21 -16 0 -24 29 -11 5 -24 -30 -16 -19 4 -37 5 -40 2 -4 -3 -6 0 -6 6 0 7
5 12 10 12 15 0 12 36 -5 50 -8 7 -15 19 -15 26 0 8 -5 14 -11 14 -6 0 -8 -7
-5 -15 5 -13 0 -15 -28 -10 -27 5 -36 3 -45 -12 -6 -10 -11 -12 -11 -5 0 17
-20 15 -20 -2 0 -7 -7 -19 -15 -26 -12 -10 -23 -8 -59 11 -42 22 -44 25 -41
63 2 33 -3 45 -25 68 -16 15 -31 28 -34 28 -2 0 -17 5 -31 10 -21 8 -25 13
-16 24 15 18 2 27 -20 15 -12 -6 -19 -21 -19 -38 0 -23 -6 -30 -27 -36 -15 -3
-31 -12 -35 -18 -5 -8 -8 -6 -8 6 0 10 -5 15 -10 12 -6 -4 -8 -11 -5 -16 4 -5
1 -9 -4 -9 -6 0 -11 -6 -11 -13 0 -17 -80 -43 -89 -29 -10 15 -35 20 -53 10
-12 -6 -18 -5 -18 3 0 8 -5 7 -17 -2 -14 -12 -16 -12 -8 0 6 10 -1 22 -21 39
-26 21 -27 24 -7 19 12 -3 22 -2 21 2 0 3 1 8 2 11 1 3 4 17 6 33 4 23 1 27
-21 27 -15 0 -25 -6 -25 -14 0 -15 -39 -14 -80 2 -18 7 -36 5 -65 -6 -48 -19
-60 -34 -37 -46 9 -5 21 -15 25 -23 4 -7 16 -13 25 -13 9 0 28 -10 42 -21 l25
-21 -27 5 c-33 5 -38 -10 -5 -16 20 -4 20 -4 -4 -6 -34 -1 -79 20 -79 39 0 8
-9 26 -19 39 -21 27 -56 22 -64 -9 -3 -11 -1 -18 4 -14 5 3 9 1 9 -5 0 -10
-16 -12 -114 -13 l-59 -1 36 -18 c41 -21 56 -39 33 -39 -9 0 -15 -3 -15 -7 4
-22 -3 -33 -18 -34 -11 0 -2 -8 19 -18 21 -10 45 -24 55 -33 21 -18 108 -34
98 -18 -3 5 -1 10 5 10 7 0 14 -9 17 -20 5 -19 23 -29 23 -12 0 4 8 8 18 9 45
5 123 23 175 43 60 23 79 21 58 -4 -10 -11 -5 -14 29 -18 41 -4 51 7 28 31
-10 11 -8 10 10 0 12 -8 22 -22 22 -31 0 -10 7 -18 17 -18 14 0 13 -3 -5 -16
-27 -19 -20 -36 13 -28 12 3 26 1 30 -5 3 -7 3 -10 -2 -9 -4 2 -26 -2 -48 -9
-22 -7 -53 -15 -68 -18 -24 -5 -27 -8 -17 -20 7 -8 9 -15 4 -15 -16 0 -9 -58
9 -78 11 -12 16 -26 12 -31 -3 -6 -2 -11 4 -11 5 0 12 8 14 18 4 16 5 16 6 0
0 -10 9 -18 19 -18 10 0 28 -7 40 -16 22 -15 47 -11 37 7 -3 5 1 6 10 3 13 -5
15 -1 11 20 -2 14 -2 25 2 25 30 -5 31 5 2 16 -50 19 -53 18 -33 -12 18 -26
17 -27 -2 -19 -17 7 -31 11 -54 15 -2 1 8 10 23 22 14 11 24 25 21 30 -11 17
21 9 43 -11 12 -11 28 -20 37 -20 9 0 13 -4 10 -10 -3 -5 0 -10 7 -10 8 0 9
-3 3 -8 -6 -4 -16 -18 -23 -32 -7 -14 -10 -17 -8 -8 3 10 1 20 -3 23 -13 8
-20 -32 -8 -44 8 -8 7 -11 -2 -11 -8 0 -11 -6 -7 -15 7 -19 -3 -47 -15 -39 -5
3 -7 11 -3 17 3 7 -1 4 -10 -7 -10 -12 -23 -17 -41 -14 -14 3 -25 2 -25 -3 0
-4 -8 -10 -17 -12 -17 -4 -17 -5 0 -6 9 0 17 -6 17 -12 0 -6 7 -9 15 -5 25 9
17 -10 -11 -29 -22 -14 -28 -15 -35 -4 -4 7 -12 10 -16 5 -4 -4 0 -13 9 -20
22 -16 12 -27 -16 -20 -12 3 -30 -2 -41 -10 l-20 -15 20 -1 c15 0 17 -2 7 -9
-21 -13 40 -31 103 -31 38 0 55 -4 59 -15 10 -27 -16 -71 -36 -59 -5 3 2 14
14 24 20 17 20 19 6 20 -10 0 -18 -4 -18 -9 0 -5 -9 -12 -19 -16 -10 -3 -21
-15 -24 -25 -7 -26 34 -37 78 -21 26 9 38 8 61 -4 16 -8 25 -15 19 -15 -5 0
-3 -5 5 -10 12 -8 11 -10 -7 -10 -12 0 -26 7 -31 16 -6 11 -16 13 -35 9 -15
-4 -27 -11 -27 -16 0 -6 -9 -5 -21 1 -11 7 -32 9 -46 5 -14 -3 -22 -2 -19 4 7
10 -62 46 -72 37 -3 -4 3 -13 14 -21 16 -13 17 -16 4 -25 -11 -8 -8 -9 15 -4
23 4 26 3 15 -5 -13 -9 -12 -11 6 -11 11 0 25 5 31 11 8 8 19 7 39 -4 33 -16
193 -21 231 -6 18 7 23 5 23 -7 0 -10 -6 -14 -15 -10 -8 3 -15 0 -15 -6 0 -6
-11 -8 -30 -4 -35 6 -37 0 -10 -34 31 -40 25 -68 -14 -61 -5 1 -13 -4 -17 -11
-7 -10 -9 -10 -9 0 0 6 -7 12 -16 12 -22 0 -9 -16 28 -34 36 -18 52 -20 43 -6
-3 6 1 10 10 10 8 0 18 -7 22 -16 4 -11 8 -12 13 -4 5 8 13 9 21 4 21 -13 71
-15 85 -3 10 8 11 5 7 -12 -5 -17 -3 -20 8 -15 8 4 3 -2 -10 -13 -24 -22 -51
-28 -51 -12 0 13 -27 21 -45 15 -8 -4 -15 -11 -15 -16 0 -6 7 -8 15 -4 18 7
55 -27 56 -51 0 -10 3 -13 6 -6 3 9 9 9 22 1 17 -11 91 -4 91 9 0 3 -8 12 -17
19 -10 7 -13 14 -6 14 6 0 15 -5 18 -10 5 -8 11 -7 20 0 8 7 18 9 23 6 6 -3
17 5 26 19 10 15 12 25 6 25 -6 0 -9 4 -5 10 3 5 11 8 18 6 7 -1 9 -1 5 1 -4
3 -10 4 -14 3 -3 -1 -11 6 -18 16 -10 13 -17 14 -34 5 -18 -10 -21 -9 -16 4 6
15 17 19 42 16 7 -1 12 2 11 6 -5 21 14 61 26 57 7 -3 16 4 20 15 3 12 11 21
17 21 6 0 6 -6 -2 -15 -7 -8 -10 -22 -6 -30 3 -8 1 -15 -4 -15 -6 0 -10 -4
-10 -10 0 -5 7 -10 16 -10 10 0 14 -6 10 -15 -3 -8 -1 -15 4 -15 6 0 10 7 10
15 0 8 7 15 15 15 13 0 14 2 3 14 -7 8 -17 11 -23 8 -5 -3 -4 1 3 10 7 9 22
15 32 13 11 -2 22 0 25 4 8 13 -23 34 -40 27 -18 -6 -19 -2 -4 26 16 30 21 66
9 73 -5 3 -10 0 -10 -7 0 -10 -3 -9 -10 2 -5 8 -6 17 -2 20 4 3 8 14 7 25 0
14 8 21 28 23 15 2 27 8 27 13 0 5 8 9 18 9 9 0 30 7 46 15 31 16 72 22 47 6
-8 -5 6 -8 37 -6 42 2 49 0 44 -13 -6 -17 3 -13 50 21 l26 19 -19 31 c-10 17
-14 34 -10 37 5 3 11 25 13 50 3 39 7 45 28 47 14 1 20 0 13 -3 -7 -3 -9 -12
-6 -20 4 -11 9 -12 19 -3 11 9 14 7 14 -10 0 -11 -4 -21 -10 -21 -5 0 -10 -4
-10 -10 0 -5 7 -10 16 -10 11 0 14 -5 9 -17 -7 -20 -8 -23 -6 -40 1 -13 61
-13 61 0 0 4 -10 12 -22 16 -23 9 -23 9 4 16 15 4 29 13 32 21 3 8 11 14 18
14 10 0 12 -12 10 -41 -3 -29 -1 -40 7 -35 6 4 11 3 11 -3 0 -17 -22 -24 -31
-10 -6 10 -9 11 -9 2 0 -7 -3 -12 -8 -10 -4 1 -8 -2 -9 -8 -2 -5 13 -8 31 -7
38 4 54 -11 36 -33 -10 -12 -9 -15 4 -15 9 0 22 16 30 35 17 39 26 45 23 16 0
-11 -5 -17 -9 -15 -4 3 -8 0 -8 -5 0 -6 5 -11 11 -11 12 0 8 -40 -6 -72 -5
-13 -3 -18 9 -18 12 0 16 10 16 39 0 32 5 43 29 61 30 21 50 23 63 6 3 -5 6 6
5 25 -1 24 2 33 11 31 8 -1 11 2 7 8 -3 5 -1 10 4 10 6 0 10 10 10 23 -1 16
-2 18 -6 5 -4 -16 -21 -23 -45 -19 -5 0 -8 -5 -9 -12 0 -6 -5 -1 -10 12 -5 13
-7 26 -4 29 3 3 5 0 5 -6 0 -7 5 -12 11 -12 5 0 7 5 4 10 -3 6 1 13 9 16 9 3
14 10 11 14 -3 4 3 7 13 6 20 -1 30 -20 32 -61 1 -16 4 -24 7 -17 8 21 32 14
26 -8 -3 -12 -14 -20 -25 -20 -15 0 -18 -4 -13 -17 17 -42 18 -56 4 -49 -8 4
-3 -2 10 -13 23 -21 23 -21 1 -21 -19 0 -21 -4 -17 -42 2 -24 2 -34 0 -24 -6
23 -32 51 -40 42 -4 -3 -3 -6 1 -6 4 0 1 -7 -8 -15 -8 -8 -19 -15 -25 -15 -6
0 -11 -8 -11 -17 0 -15 -2 -14 -15 4 -10 14 -22 20 -37 16 -75 -15 -108 -27
-108 -39 0 -8 6 -11 17 -7 11 4 14 3 9 -5 -9 -15 -5 -15 29 -2 22 8 27 7 35
-14 14 -37 27 -39 34 -3 5 22 9 28 15 19 4 -7 12 -12 17 -11 26 5 84 -2 84
-10 0 -5 -9 -7 -20 -4 -14 4 -20 0 -20 -11 0 -9 7 -16 15 -16 8 0 15 -9 15
-20 0 -11 0 -23 0 -27 0 -5 -6 -8 -12 -8 -14 0 -26 -21 -27 -45 -1 -10 2 -11
7 -4 10 16 88 28 97 15 4 -8 13 -6 28 4 25 18 41 20 32 4 -4 -6 2 -17 14 -25
24 -17 18 -38 -8 -29 -17 5 -18 0 -11 -50 1 -5 5 0 10 13 9 22 34 30 45 13 3
-5 -3 -11 -12 -13 -10 -2 18 -4 62 -3 44 0 86 4 93 8 8 5 12 2 12 -8 0 -10 -5
-13 -12 -9 -9 5 -9 2 1 -9 15 -18 26 -23 16 -7 -3 6 1 10 9 10 8 0 38 5 65 11
49 10 51 11 47 42 -3 18 -5 34 -7 37 -1 3 -1 8 0 13 0 4 -5 7 -12 7 -7 0 -20
9 -29 19 -16 18 -16 20 0 23 28 6 62 -4 62 -17 0 -8 8 -16 18 -18 16 -4 16 -5
0 -6 -10 0 -18 -6 -18 -12 0 -5 5 -7 10 -4 6 3 10 2 10 -4 0 -5 -4 -13 -10
-16 -5 -3 -10 -17 -10 -31 0 -22 8 -28 28 -22 4 2 6 6 5 10 -2 5 4 8 13 8 11
0 14 -6 9 -20 -5 -17 -2 -20 20 -20 14 0 24 4 21 9 -7 11 22 23 35 15 5 -3 9
261 9 656 l0 661 -21 -12 c-15 -8 -19 -8 -15 0 4 6 1 11 -6 11 -8 1 -5 7 7 16
19 14 19 15 -5 12 -21 -3 -25 1 -25 22 0 16 8 29 25 37 14 7 20 13 14 13 -22
0 -59 -25 -59 -40 0 -8 -10 -16 -23 -18 -22 -3 -23 -4 -5 -18 16 -13 12 -13
-37 -8 -30 4 -56 8 -58 9 -1 1 3 14 9 28 13 29 97 73 158 83 l38 6 2 57 c1 69
-6 81 -38 65z m-1526 -830 c19 -9 37 -25 40 -35 5 -13 12 -18 24 -14 12 3 22
-3 31 -19 7 -14 20 -27 29 -30 9 -3 -1 -4 -21 -3 -40 3 -46 -1 -26 -21 9 -9 9
-12 -3 -12 -8 0 -20 5 -27 12 -7 7 -12 8 -12 2 0 -6 5 -15 11 -21 9 -9 9 -20
-1 -43 -16 -40 -23 -32 -25 31 -1 45 -5 52 -36 74 -19 14 -44 26 -56 28 -12 2
-26 7 -30 11 -5 4 -3 7 2 6 24 -5 55 1 55 10 0 6 -11 15 -25 20 -14 5 -25 11
-25 13 0 11 67 5 95 -9z"/>
<path d="M6963 3125 c-18 -8 -33 -19 -33 -25 0 -6 -4 -9 -9 -5 -5 3 -12 1 -15
-4 -9 -14 17 -20 65 -16 24 3 36 2 26 -1 -9 -3 -15 -9 -12 -14 3 -4 -3 -14
-13 -21 -15 -13 -16 -12 -3 4 10 12 10 17 1 17 -12 0 -25 -33 -19 -47 2 -4 14
-6 27 -5 12 2 22 -2 22 -9 0 -7 -3 -9 -6 -6 -4 3 -15 2 -25 -4 -13 -6 -19 -6
-19 1 0 14 -37 13 -42 -2 -3 -8 -9 -7 -18 4 -13 14 -20 14 -60 0 -54 -18 -80
-38 -35 -27 68 16 81 17 68 4 -20 -20 -15 -26 16 -21 16 2 32 -1 35 -7 4 -7
-1 -12 -13 -12 -12 -1 -30 -3 -41 -4 -11 -1 -27 -3 -37 -4 -25 -2 -12 -8 30
-15 22 -3 37 -2 37 4 0 6 9 10 20 10 11 0 20 -4 20 -10 0 -15 17 -12 24 5 3 8
2 14 -2 14 -31 -5 -18 6 27 22 38 13 57 16 62 8 4 -6 8 -3 11 9 3 11 2 26 -2
32 -10 15 -1 42 10 35 13 -8 37 5 37 20 0 10 -12 15 -36 16 -30 2 -32 3 -8 6
21 3 27 10 27 29 0 23 -3 25 -30 19 -17 -4 -36 -2 -43 3 -8 7 -22 6 -44 -3z"/>
<path d="M300 2766 c0 -8 -6 -17 -12 -19 -7 -3 -3 -6 10 -6 25 -1 31 -28 8
-37 -8 -3 -12 -12 -10 -19 5 -13 -11 -21 -56 -30 -18 -3 -20 -2 -10 10 12 14
10 15 -63 30 -11 2 -19 -5 -23 -20 -7 -29 1 -45 23 -45 9 0 14 -2 11 -5 -3 -3
8 -19 24 -35 24 -24 33 -28 48 -20 12 6 17 16 13 25 -4 12 -9 13 -19 4 -7 -6
-19 -9 -25 -7 -6 2 0 12 15 21 14 10 26 13 26 7 0 -5 7 -10 16 -10 8 0 12 -5
8 -11 -3 -6 0 -15 7 -20 11 -7 11 -9 1 -9 -7 0 -10 -4 -7 -10 3 -6 -1 -7 -9
-4 -9 3 -16 1 -16 -5 0 -6 9 -11 20 -11 11 0 20 -4 20 -10 0 -16 -18 -12 -40
10 -10 10 -22 16 -24 11 -7 -10 16 -71 26 -71 12 0 10 14 -4 28 -9 9 -9 12 -1
12 7 0 14 -4 18 -10 3 -5 11 -7 18 -4 7 2 20 -9 30 -26 23 -38 61 -49 87 -25
27 24 25 35 -5 35 -17 0 -25 6 -25 18 0 10 -3 13 -8 6 -5 -7 -14 -7 -29 1 -13
7 -20 15 -17 18 4 4 2 13 -4 20 -6 7 -10 26 -9 42 2 23 -3 30 -23 35 -17 4
-21 8 -12 14 6 4 17 4 22 1 9 -6 14 8 11 28 -1 5 3 6 9 2 6 -3 8 -17 6 -31 -4
-19 0 -24 15 -24 12 0 19 -7 19 -19 0 -11 5 -23 10 -26 6 -4 10 8 10 29 0 20
-4 36 -10 36 -6 0 -9 3 -9 8 4 21 -3 34 -23 42 -22 8 -21 9 7 11 18 1 23 3 12
6 -10 3 -20 17 -24 33 -5 30 -33 50 -33 26z"/>
<path d="M3 2552 c0 -43 5 -76 12 -80 6 -4 19 -18 28 -32 l17 -25 6 23 c4 12
13 22 21 22 8 0 11 -5 8 -11 -4 -6 1 -17 11 -25 18 -15 18 -15 -1 -9 -16 5
-18 4 -7 -6 14 -15 16 -33 2 -24 -5 3 -10 -3 -10 -14 0 -12 -4 -21 -10 -21 -5
0 -10 -6 -10 -14 0 -8 -6 -18 -12 -22 -7 -4 -10 -4 -6 1 4 4 3 14 -3 21 -8 9
-5 15 9 23 14 7 18 17 15 32 -4 14 -8 17 -13 9 -6 -9 -10 -7 -14 7 -7 22 -46
29 -46 8 0 -8 7 -18 16 -23 14 -8 14 -10 0 -25 -22 -22 -21 -46 3 -40 15 4 18
0 14 -20 -4 -19 1 -29 22 -43 23 -15 28 -15 36 -3 8 12 10 12 19 -1 5 -8 10
-24 10 -35 0 -26 46 -105 71 -122 10 -8 19 -22 19 -32 0 -23 22 -33 41 -19 11
8 10 9 -3 4 -22 -7 -24 16 -4 33 12 10 18 7 32 -14 20 -31 28 -27 15 8 -7 17
-19 27 -37 29 -15 2 -29 9 -32 16 -3 11 0 12 16 3 27 -14 42 -14 42 1 0 14
-71 78 -86 78 -6 0 -19 9 -29 20 -10 11 -25 20 -33 20 -11 0 -12 3 -3 13 8 11
5 17 -13 27 -13 7 -29 9 -35 6 -7 -5 -9 -1 -5 8 3 9 17 16 31 16 15 0 22 -4
17 -11 -5 -8 -1 -8 14 0 11 6 22 16 24 23 3 9 12 9 36 -1 18 -8 35 -11 39 -8
3 4 -5 11 -18 16 -15 6 -18 10 -9 12 26 3 45 -2 52 -14 5 -8 8 -6 8 6 0 9 -7
17 -15 17 -8 0 -15 6 -15 14 0 8 -7 21 -15 30 -13 12 -13 17 -2 28 11 9 12 21
4 51 -8 30 -20 45 -56 68 -25 15 -53 26 -63 23 -9 -3 -19 0 -23 6 -3 6 -11 8
-16 4 -5 -3 -7 -10 -4 -15 4 -5 2 -9 -4 -9 -17 0 -21 17 -7 29 8 7 18 11 22
10 5 -1 18 0 29 1 14 1 9 5 -15 12 -24 7 -36 6 -38 -1 -5 -15 -39 -14 -45 2
-3 6 -4 -21 -4 -61z"/>
<path d="M5515 2409 c-4 -6 -19 -7 -36 -4 -18 4 -29 3 -29 -4 0 -6 14 -11 31
-11 19 0 28 -4 24 -11 -4 -6 -14 -8 -22 -5 -8 3 -21 -1 -29 -9 -18 -17 -40
-20 -49 -5 -6 10 7 14 33 11 6 -1 12 3 12 9 0 19 -41 10 -61 -12 -26 -32 -24
-63 6 -76 20 -9 23 -9 18 5 -5 12 -2 13 13 5 25 -13 53 -7 68 13 14 20 85 47
99 38 5 -3 2 -10 -7 -15 -23 -13 -20 -27 9 -40 30 -14 33 -33 4 -25 -13 3 -19
1 -16 -6 2 -7 25 -13 50 -15 26 -2 47 -7 47 -13 0 -5 11 -9 25 -9 14 0 25 -6
25 -12 0 -9 4 -8 10 2 15 23 12 57 -6 64 -10 4 -13 13 -9 25 4 13 0 20 -15 24
-13 3 -20 14 -20 29 0 18 -2 20 -9 9 -8 -12 -12 -12 -25 -2 -8 7 -24 10 -36 6
-23 -7 -60 2 -60 16 0 5 8 9 17 9 25 0 11 8 -24 15 -18 3 -35 0 -38 -6z"/>
<path d="M6660 1230 c-13 -8 -12 -10 3 -10 9 0 17 -4 17 -10 0 -5 -5 -10 -11
-10 -13 0 44 -55 65 -63 8 -3 16 -16 18 -29 2 -17 9 -22 24 -20 12 2 24 -4 27
-13 4 -8 14 -15 23 -15 15 0 15 2 -2 22 -10 12 -13 18 -6 14 24 -14 69 -15 96
-1 15 8 26 10 26 4 0 -6 17 -8 46 -3 31 4 45 3 41 -4 -9 -13 26 -10 35 4 4 6
1 31 -6 55 -8 24 -14 36 -15 25 -1 -15 -4 -16 -15 -7 -11 9 -15 9 -18 -1 -3
-7 2 -18 11 -25 14 -11 13 -13 -9 -14 -14 -1 -30 -2 -37 -2 -6 0 -9 -6 -6 -14
5 -13 2 -13 -14 -5 -11 6 -30 8 -42 5 -16 -4 -20 -2 -16 9 8 20 -27 29 -43 11
-7 -7 -18 -13 -24 -13 -9 0 -9 3 0 12 8 8 7 15 -7 27 -10 9 -20 23 -24 31 -3
9 -6 6 -6 -10 -1 -14 -6 -32 -11 -40 -8 -12 -14 -10 -39 14 -17 16 -28 32 -26
36 11 17 -36 52 -55 40z"/>
<path d="M6613 1152 c-24 -8 -43 -18 -43 -22 0 -14 22 -23 29 -12 4 7 17 6 39
-4 34 -14 35 -34 2 -34 -13 0 -17 -5 -14 -14 9 -23 -35 -31 -51 -9 -11 15 -16
16 -27 5 -11 -11 -10 -12 5 -6 14 5 16 2 11 -12 -4 -11 -4 -16 0 -12 4 3 19 0
32 -7 15 -7 42 -11 63 -8 23 3 41 1 45 -6 10 -16 46 5 46 27 0 11 -13 23 -35
31 -43 15 -46 33 -5 25 23 -5 30 -3 30 10 0 9 -8 16 -20 16 -11 0 -20 4 -20 9
0 5 -10 15 -22 23 -20 12 -29 12 -65 0z"/>
<path d="M6050 750 c-1 -8 -3 -28 -4 -43 0 -15 -8 -32 -16 -38 -11 -8 -9 -9
12 -5 21 5 31 0 47 -20 11 -15 18 -31 14 -37 -3 -5 -1 -7 4 -4 21 13 33 -17
19 -45 -18 -34 -9 -43 15 -15 16 19 20 20 29 7 5 -8 8 -19 7 -24 -4 -13 -67
-17 -67 -5 0 5 -7 9 -16 9 -14 0 -14 -3 -4 -15 17 -20 -6 -21 -26 -1 -21 21
-18 26 16 26 21 0 30 5 30 16 0 8 -4 12 -10 9 -5 -3 -10 -1 -10 4 0 6 -15 10
-34 8 -27 -1 -32 -5 -23 -15 8 -10 7 -16 -3 -22 -8 -5 -17 -7 -20 -5 -4 2 -7
-3 -7 -11 0 -10 7 -14 19 -11 10 3 18 2 18 -3 0 -4 -9 -10 -20 -13 -11 -3 -20
-1 -20 5 0 5 -5 6 -11 2 -7 -4 -9 0 -5 13 4 12 -1 28 -13 41 -23 27 -27 27
-27 3 0 -11 5 -19 11 -18 5 1 11 -10 13 -25 2 -20 10 -28 32 -33 37 -8 49 -35
15 -35 -14 0 -25 -4 -25 -10 0 -5 7 -7 16 -3 9 3 20 0 25 -8 6 -10 9 -10 9 -1
0 16 30 15 54 -3 13 -10 17 -21 12 -39 -5 -19 -2 -26 9 -26 18 0 21 -20 3 -20
-8 -1 -6 -6 5 -14 10 -8 17 -18 16 -22 -4 -21 2 -28 12 -14 9 13 10 13 8 0 -3
-28 1 -41 11 -35 5 3 7 12 4 19 -6 16 12 31 21 17 3 -6 12 -8 20 -4 9 3 15 -1
15 -11 0 -9 -7 -16 -16 -16 -8 0 -12 -5 -9 -10 4 -6 9 -8 13 -6 4 2 7 -11 8
-30 0 -19 -4 -34 -10 -34 -6 0 -3 -7 8 -15 10 -8 16 -21 13 -29 -4 -9 -2 -18
3 -21 6 -4 10 5 10 19 0 14 7 29 16 34 11 6 13 11 5 16 -6 4 -11 13 -11 19 1
7 9 2 19 -10 11 -13 23 -23 29 -23 5 0 8 -12 6 -27 l-4 -28 12 27 c7 16 15 28
20 28 13 0 9 -38 -4 -44 -7 -3 3 -4 22 -4 19 1 45 -4 58 -11 12 -6 22 -9 22
-5 0 3 11 -1 25 -10 30 -20 32 -13 5 14 -10 10 -22 15 -25 10 -3 -5 -13 -6
-21 -3 -11 4 -12 9 -5 16 17 17 13 22 -15 25 -14 1 -23 -2 -20 -7 3 -5 -1 -11
-9 -15 -18 -6 -20 5 -3 22 8 8 8 15 -3 28 -12 15 -12 16 9 10 13 -5 22 -3 22
3 0 6 5 11 11 11 5 0 7 -5 4 -10 -3 -6 0 -10 8 -10 8 0 18 -11 21 -25 4 -14
12 -24 19 -22 6 1 11 -6 10 -16 0 -12 4 -16 13 -13 8 3 15 -1 15 -9 1 -8 2
-20 3 -27 1 -14 26 -24 26 -10 0 5 7 9 15 9 18 0 20 -14 3 -19 -8 -3 -4 -9 9
-17 22 -11 23 -11 17 36 -13 117 -16 134 -30 147 -15 16 -27 99 -13 90 5 -3 9
-19 9 -36 0 -17 3 -29 6 -26 3 4 2 33 -2 65 -4 32 -10 51 -13 43 -3 -8 -12
-16 -20 -18 -12 -3 -12 0 -1 13 17 20 5 32 -15 15 -19 -16 -19 -29 2 -52 9
-10 14 -20 12 -22 -2 -3 -19 13 -38 35 -32 39 -37 64 -6 39 12 -10 15 -10 15
3 0 8 -6 18 -12 21 -7 3 -2 3 11 0 14 -4 27 -1 32 7 12 19 11 29 -2 29 -5 0
-7 -5 -4 -10 3 -6 -1 -10 -10 -10 -22 0 -55 18 -55 31 0 6 4 7 10 4 6 -3 7 1
4 10 -5 11 -2 14 12 9 16 -6 17 -5 6 7 -11 12 -15 11 -26 -4 -12 -16 -14 -16
-27 -1 -11 14 -11 18 4 29 21 15 22 29 2 21 -8 -3 -15 -1 -15 3 0 9 24 21 41
21 4 0 5 -7 2 -17 -4 -10 -2 -14 4 -10 13 8 29 -10 36 -38 3 -13 5 -9 6 13 1
19 -4 31 -10 30 -6 -2 -14 3 -17 11 -2 8 0 11 6 8 5 -4 12 2 15 13 6 24 -1 25
-39 5 -25 -13 -29 -12 -42 6 l-14 20 -17 -20 c-10 -11 -22 -17 -27 -13 -5 4 0
-3 11 -14 11 -12 23 -20 26 -18 4 2 9 -3 13 -11 7 -19 -4 -19 -34 2 -14 9 -19
10 -12 3 6 -8 12 -21 12 -30 0 -8 10 -21 23 -29 17 -10 19 -11 10 0 -21 21
-15 34 7 14 19 -17 27 -90 8 -79 -4 3 -8 -4 -8 -16 0 -12 5 -18 10 -15 6 3 10
1 10 -6 0 -7 8 -22 18 -33 16 -20 16 -20 -2 -6 -18 14 -19 13 -13 -3 4 -10 7
-21 7 -23 0 -2 6 -4 14 -4 7 0 21 -11 30 -25 10 -15 22 -23 28 -19 8 5 9 1 4
-11 -4 -10 -1 -25 7 -34 15 -17 31 -71 22 -71 -3 0 -12 15 -20 34 -20 48 -59
104 -90 128 -17 13 -24 26 -20 38 4 13 1 17 -12 16 -12 0 -18 6 -18 19 0 26
-39 110 -56 120 -9 6 -10 3 -5 -11 6 -15 5 -17 -5 -6 -24 23 -32 12 -9 -13 12
-13 27 -22 31 -19 5 3 9 0 9 -7 0 -7 7 -21 17 -31 9 -10 13 -21 9 -26 -4 -4
-14 1 -21 12 -8 10 -35 40 -60 67 -26 27 -41 49 -34 49 8 0 8 4 1 13 -12 14
-42 145 -42 182 0 15 4 24 10 20 6 -3 10 -2 10 3 0 5 -12 14 -26 20 -20 10
-24 10 -17 0 4 -7 9 -31 10 -53 3 -52 8 -78 15 -90 3 -6 8 -28 12 -50 l6 -40
-35 39 c-37 42 -45 62 -19 52 8 -3 12 -2 9 4 -3 6 -16 10 -29 10 -36 0 -100
80 -109 136 -2 16 -5 22 -7 14z m195 -280 c29 -30 39 -48 40 -74 0 -30 -2 -33
-18 -25 -9 6 -15 15 -11 20 3 6 -4 5 -17 -2 -13 -7 -27 -12 -31 -11 -5 1 -8
-3 -8 -9 0 -6 9 -8 20 -4 14 5 20 2 20 -9 0 -9 -4 -16 -10 -16 -5 0 -10 -6
-10 -14 0 -24 -20 -30 -34 -10 -10 13 -15 14 -21 4 -6 -10 -9 -9 -16 1 -12 20
-11 67 2 74 6 4 8 13 5 21 -3 7 -1 16 4 19 4 3 11 -1 13 -7 3 -8 6 -6 6 5 1
18 21 25 21 6 0 -6 6 -9 13 -6 6 2 18 -3 25 -12 8 -10 7 -5 -2 15 -8 17 -13
34 -10 37 3 3 0 8 -7 12 -9 6 -10 1 -6 -18 7 -24 6 -24 -18 -14 -14 7 -23 18
-20 25 3 7 0 10 -5 7 -6 -3 -10 -2 -10 4 0 9 16 19 35 20 6 1 28 -17 50 -39z
m78 -101 c3 -12 10 -18 15 -15 12 7 35 -18 25 -27 -3 -4 0 -7 8 -7 9 0 25 -14
38 -30 13 -18 16 -29 9 -28 -7 2 -16 11 -20 20 -5 12 -13 15 -24 11 -16 -6
-16 -7 2 -14 12 -5 14 -8 4 -8 -8 -1 2 -13 23 -27 21 -14 44 -23 51 -21 9 4
13 -4 12 -24 -1 -28 -16 -43 -16 -16 0 7 -12 20 -28 29 -15 9 -40 28 -55 42
l-27 25 4 -44 c4 -42 -11 -74 -27 -58 -13 13 -7 22 11 16 23 -7 -37 51 -62 60
-16 6 -17 10 -6 20 10 9 13 9 17 -1 3 -6 9 -10 14 -6 11 6 12 35 2 32 -14 -4
-53 13 -53 23 0 5 8 9 17 9 13 0 14 3 5 12 -19 19 -14 33 6 16 15 -14 52 -21
52 -11 0 3 -5 13 -10 24 -6 11 -7 19 -2 19 6 0 12 -9 15 -21z"/>
<path d="M7302 598 c-16 -16 -15 -28 3 -28 8 0 15 -3 15 -7 0 -5 -16 -8 -35
-8 -26 0 -35 4 -35 17 0 9 -7 15 -15 14 -21 -3 -31 -16 -12 -16 20 0 22 -20 5
-39 -11 -11 -10 -13 5 -8 9 4 17 2 17 -3 0 -6 5 -10 11 -10 5 0 8 4 5 9 -3 5
0 13 7 19 9 8 12 3 11 -19 -2 -42 -2 -42 -20 -25 -18 18 -44 21 -44 5 0 -5 5
-7 10 -4 6 3 10 -1 10 -9 0 -9 6 -16 13 -16 8 0 8 -3 -2 -9 -11 -7 -10 -10 7
-13 13 -2 19 -7 14 -15 -4 -6 -19 -9 -35 -6 -22 4 -25 8 -16 19 9 11 8 14 -1
14 -6 0 -14 -8 -17 -18 -2 -10 -13 -19 -24 -19 -16 -2 -18 1 -9 12 9 11 4 18
-26 33 -24 12 -33 22 -25 26 7 5 21 0 31 -9 10 -9 25 -15 32 -12 8 4 7 6 -4 6
-10 1 -18 5 -18 9 0 5 -16 16 -35 25 -35 17 -46 12 -23 -11 9 -9 9 -12 -1 -12
-6 0 -17 14 -22 30 -6 17 -15 30 -19 30 -5 0 -2 -12 6 -27 17 -33 20 -68 4
-43 -13 20 -13 4 0 -21 7 -13 7 -19 0 -19 -5 0 -10 -7 -10 -16 0 -8 4 -13 8
-10 4 2 6 -12 4 -32 -4 -32 -3 -35 10 -24 8 6 18 9 21 5 10 -10 8 6 -3 27 -13
25 -2 53 19 45 10 -4 7 3 -8 19 -14 15 -20 26 -14 26 5 0 19 -10 31 -23 22
-24 22 -24 2 -42 -15 -14 -17 -22 -9 -36 5 -11 7 -24 4 -29 -3 -6 0 -10 7 -10
7 0 24 -3 37 -7 20 -5 22 -4 13 13 -5 10 -7 25 -5 32 3 6 0 12 -6 12 -5 0 -7
-12 -5 -27 5 -27 5 -27 -15 -9 -26 23 -27 42 -4 51 12 4 24 -1 35 -14 21 -27
33 -26 52 1 9 12 19 18 23 14 4 -4 1 -11 -7 -17 -13 -8 -13 -10 0 -20 13 -9
12 -10 -2 -5 -10 3 -18 1 -18 -4 0 -13 16 -13 42 1 14 8 18 8 14 0 -4 -6 4
-23 18 -38 28 -30 26 -43 -7 -43 -17 0 -19 2 -8 9 9 6 11 16 7 27 -7 17 -9 17
-21 -6 -13 -22 -21 -16 -16 13 2 14 -18 7 -28 -10 -9 -15 -10 -14 -11 10 0 17
-4 26 -10 22 -6 -4 -8 -15 -5 -26 5 -14 2 -19 -10 -19 -11 0 -15 -5 -11 -15 3
-9 0 -15 -9 -15 -8 0 -15 -4 -15 -10 0 -18 -22 -10 -27 10 -3 11 -9 17 -14 14
-5 -3 -3 -14 4 -25 10 -16 9 -21 -3 -29 -11 -7 -11 -10 -2 -10 7 0 12 -8 10
-17 -2 -14 3 -18 25 -16 24 2 27 -1 22 -25 -5 -25 -5 -25 4 -4 6 12 8 29 5 37
-4 8 -1 15 4 15 6 0 12 10 14 23 3 17 6 13 13 -17 7 -37 31 -76 46 -76 4 0 2
11 -4 24 -7 13 -15 22 -18 20 -4 -2 -5 5 -2 17 4 16 8 18 14 7 8 -11 11 -11
18 1 5 8 7 20 5 26 -3 7 2 15 10 18 9 4 16 1 17 -6 0 -7 4 -3 9 8 9 19 9 19
16 -2 3 -13 11 -20 17 -16 6 3 7 1 3 -5 -4 -7 -18 -9 -32 -6 -27 7 -31 -1 -9
-22 17 -18 20 -34 5 -34 -5 0 -10 7 -10 15 0 8 -6 15 -14 15 -17 0 -31 -18
-21 -28 3 -3 10 0 15 8 8 13 10 13 10 -1 0 -20 21 -30 49 -22 16 4 21 1 21
-15 0 -23 17 -39 28 -27 4 4 1 10 -5 12 -7 3 -13 9 -13 14 0 6 3 8 8 5 4 -2 8
13 8 34 1 22 -2 37 -7 35 -4 -3 -10 2 -13 11 -4 11 -2 15 7 11 17 -6 23 168 5
179 -7 4 -8 3 -4 -4 4 -7 3 -12 -2 -12 -21 0 -20 29 0 36 19 6 19 7 5 16 -10
5 -17 16 -17 23 0 18 -1 18 -35 5 -17 -7 -24 -7 -20 0 3 6 13 10 21 10 12 0
20 32 15 63 0 4 4 6 10 5 6 -2 14 3 16 11 4 9 0 11 -16 6 -15 -4 -21 -2 -21 9
0 21 -14 28 -28 14z"/>
<path d="M6885 573 c4 -8 0 -13 -10 -13 -9 0 -13 -4 -10 -10 3 -5 15 -10 26
-10 22 0 58 -36 59 -57 0 -7 5 -13 10 -13 6 0 10 -5 10 -11 0 -5 -4 -8 -9 -5
-4 3 -6 -6 -3 -20 4 -23 5 -23 18 -7 8 11 13 13 14 6 0 -7 7 -13 15 -13 18 0
18 -5 4 -31 -8 -17 -7 -23 8 -34 24 -17 11 -30 -16 -15 -13 6 -21 21 -21 36 0
16 -4 23 -12 18 -6 -4 -17 1 -24 10 -8 11 -14 13 -19 7 -3 -6 -1 -11 4 -11 15
0 14 -23 -1 -38 -10 -10 -15 -7 -25 10 -12 21 -13 21 -11 3 2 -11 11 -26 21
-34 16 -12 21 -11 35 4 10 10 11 15 5 11 -15 -8 -18 10 -4 19 5 3 18 -8 27
-25 10 -16 23 -30 28 -30 16 0 -67 -40 -84 -40 -11 -1 -8 -6 9 -20 26 -22 51
-13 51 19 0 12 2 13 9 3 7 -11 9 -10 15 3 4 11 12 14 27 10 15 -5 19 -4 15 4
-4 6 -3 11 2 11 5 0 8 10 6 23 -1 12 -3 33 -3 46 -1 20 -3 22 -16 11 -13 -11
-14 -10 -9 4 3 9 10 16 15 16 19 0 8 21 -17 30 -14 6 -23 14 -19 20 3 5 12 7
20 3 9 -3 15 1 15 10 0 8 -8 14 -17 13 -14 -1 -18 7 -18 32 0 17 -3 32 -7 32
-5 0 -8 -10 -8 -22 0 -13 -5 -30 -10 -38 -8 -13 -11 -11 -16 8 -4 12 -10 22
-15 22 -5 0 -23 15 -40 33 -17 17 -28 26 -24 20z"/>
<path d="M6601 365 c-1 -15 -3 -17 -10 -6 -5 7 -14 10 -20 7 -16 -10 -14 -46
3 -46 8 0 17 -7 20 -16 4 -12 1 -14 -14 -9 -17 5 -19 3 -16 -17 3 -13 5 -29 5
-37 1 -11 4 -11 16 -1 9 7 15 8 15 2 0 -5 -6 -12 -14 -15 -11 -5 -13 -19 -9
-64 7 -73 19 -106 35 -97 8 5 9 2 4 -12 -20 -48 -19 -54 9 -54 27 0 28 0 10
20 -10 11 -16 23 -13 26 3 3 16 -5 28 -18 17 -18 33 -23 81 -25 62 -2 70 5 43
32 -15 14 -18 15 -34 0 -9 -8 -24 -13 -34 -9 -20 8 -21 24 0 24 8 0 12 -5 9
-10 -3 -6 -2 -10 3 -10 10 0 26 29 24 42 -1 5 5 8 13 8 8 0 15 5 15 11 0 6 -8
8 -19 4 -22 -7 -53 4 -45 16 3 5 9 7 13 4 5 -2 7 6 6 18 -1 12 -3 30 -4 41 -1
14 -6 17 -23 13 -21 -5 -21 -5 -6 7 9 7 15 21 13 32 -2 10 -4 22 -4 27 -1 4
-6 7 -12 7 -8 0 -8 -5 1 -15 8 -9 8 -15 2 -15 -6 0 -18 -7 -26 -16 -28 -27
-13 25 15 54 l24 25 -25 -8 c-23 -7 -24 -6 -11 9 13 16 12 16 -13 5 -25 -12
-30 -11 -46 11 -12 16 -15 27 -8 31 5 4 8 15 5 25 -4 18 -5 18 -6 -1z"/>
<path d="M5869 351 c11 -7 10 -11 -6 -20 -11 -5 -22 -8 -25 -6 -3 3 -10 -7
-17 -22 -10 -22 -10 -24 1 -15 19 15 40 0 32 -24 -4 -10 -12 -22 -17 -25 -4
-3 -1 -13 7 -22 15 -14 15 -17 -1 -26 -10 -6 -13 -11 -8 -11 18 0 55 30 55 46
0 8 -8 14 -17 14 -17 1 -17 2 0 14 12 9 14 16 8 21 -6 3 -11 11 -11 17 0 7 6
6 15 -2 8 -7 15 -23 15 -37 0 -13 4 -22 10 -18 6 4 6 15 -1 32 -10 28 -7 39
11 28 6 -4 8 -16 4 -27 -3 -12 -2 -18 3 -15 6 4 8 -4 5 -18 -2 -14 -8 -25 -12
-25 -4 0 -10 -6 -13 -14 -7 -17 25 -16 36 2 14 21 37 13 57 -20 20 -34 28 -22
10 13 -7 13 -7 19 0 19 5 0 10 -7 10 -15 0 -8 5 -15 10 -15 6 0 10 5 10 11 0
8 4 8 14 0 12 -10 13 -8 9 8 -4 15 -1 21 11 21 9 0 16 5 16 10 0 13 -37 13
-45 0 -5 -8 -11 -8 -19 -1 -9 7 -16 7 -24 -1 -10 -10 -11 -5 -6 21 5 25 4 32
-4 27 -8 -4 -12 0 -12 11 0 15 -2 16 -10 3 -8 -13 -10 -12 -10 3 0 9 5 17 11
17 5 0 7 5 3 12 -5 8 -11 5 -17 -10 -15 -33 -27 -27 -27 13 0 19 -5 35 -11 35
-6 0 -8 -8 -4 -19 6 -21 -11 -37 -42 -39 -31 -1 -29 16 2 24 20 5 23 9 14 20
-6 8 -17 14 -23 14 -6 0 -5 -4 3 -9z"/>
<path d="M6907 165 c3 -8 9 -13 13 -10 16 10 22 -16 8 -32 -9 -12 -9 -15 0 -9
6 4 12 3 12 -3 0 -15 -43 -18 -66 -3 -20 12 -21 11 -21 -12 0 -20 5 -25 36
-28 22 -3 41 1 49 9 7 7 18 13 24 13 6 0 3 10 -8 23 l-19 22 26 -22 c20 -18
28 -20 39 -10 10 10 12 9 6 -7 -5 -16 -4 -17 9 -6 13 11 19 10 35 -5 11 -10
17 -22 14 -26 -10 -16 -24 -9 -24 11 0 25 -12 26 -27 1 -10 -16 -9 -21 5 -27
9 -4 23 -6 30 -5 23 4 12 -17 -15 -27 -24 -9 -19 -11 35 -11 48 -1 62 2 62 13
0 8 4 17 9 20 5 3 8 -2 7 -11 0 -10 7 -18 19 -20 11 -1 14 0 8 3 -7 3 -13 12
-13 20 0 9 4 12 10 9 6 -3 7 1 4 9 -3 9 -9 14 -13 12 -4 -3 -8 4 -8 15 -1 11
2 17 8 14 13 -8 39 19 31 32 -4 6 -14 9 -23 8 -12 -2 -15 3 -11 21 3 18 0 24
-13 24 -12 0 -15 -5 -10 -20 10 -30 -4 -24 -16 8 -9 24 -11 25 -21 9 -6 -12
-13 -15 -21 -9 -16 13 -117 22 -117 11 0 -5 14 -9 30 -9 20 0 30 -5 30 -15 0
-7 8 -19 18 -25 16 -11 16 -11 -1 -6 -10 3 -21 6 -23 6 -2 0 -4 7 -4 15 0 11
-8 13 -30 9 -17 -4 -30 -2 -30 3 0 5 -11 15 -25 21 -20 9 -23 9 -18 -3z"/>
</g>
</svg>
