<?xml version="1.0" standalone="no"?>
<!DOCTYPE svg PUBLIC "-//W3C//DTD SVG 20010904//EN"
 "http://www.w3.org/TR/2001/REC-SVG-20010904/DTD/svg10.dtd">
<svg version="1.0" xmlns="http://www.w3.org/2000/svg"
 width="675.000000pt" height="272.000000pt" viewBox="0 0 675.000000 272.000000"
 preserveAspectRatio="xMidYMid meet">
<metadata>
Created by potrace 1.16, written by Peter Selinger 2001-2019
</metadata>
<g transform="translate(0.000000,272.000000) scale(0.100000,-0.100000)"
fill="#000000" stroke="none">
<path d="M0 1360 l0 -1360 3375 0 3375 0 0 1360 0 1360 -3375 0 -3375 0 0
-1360z m2120 310 l0 -380 -30 0 -30 0 0 352 0 352 27 28 c15 15 28 28 30 28 2
0 3 -171 3 -380z m-1066 280 c49 -18 58 -56 54 -236 -3 -154 -4 -165 -25 -186
-18 -18 -37 -23 -93 -26 -56 -3 -70 -7 -70 -20 0 -9 39 -56 87 -104 l88 -88
-51 0 -51 0 -124 128 -124 127 140 5 140 5 3 168 2 167 -245 0 -245 0 0 35 0
35 244 0 c135 0 256 -4 270 -10z m3786 -25 l0 -35 -105 0 -105 0 0 -300 0
-300 -35 0 -35 0 0 300 0 300 -105 0 -105 0 0 35 0 35 245 0 245 0 0 -35z
m-4220 -360 l0 -275 -40 0 -40 0 0 237 0 237 37 38 c20 21 38 38 40 38 2 0 3
-124 3 -275z m1129 184 c17 -6 36 -19 41 -29 6 -10 10 -102 10 -204 l0 -185
-26 -20 c-25 -19 -40 -21 -206 -21 -242 0 -228 -15 -228 233 0 178 1 184 23
204 12 11 29 23 37 26 29 10 317 7 349 -4z m725 -3 c49 -21 56 -52 56 -267 l0
-189 -35 0 -35 0 0 210 0 210 -142 0 -141 0 23 25 c22 24 29 25 132 25 70 0
120 -5 142 -14z m712 -19 c24 -28 24 -31 24 -233 l0 -204 -36 0 -36 0 2 153
c1 83 1 178 1 210 l-1 57 -182 0 -181 0 24 26 24 26 168 -4 169 -3 24 -28z
m322 -204 l2 -233 -30 0 -30 0 0 236 0 235 28 -3 27 -3 3 -232z m376 208 l26
-24 0 -209 0 -208 -30 0 -30 0 0 210 0 210 -142 0 -141 0 24 26 c24 25 26 25
146 22 112 -3 123 -5 147 -27z m1166 -206 l0 -235 -30 0 -30 0 0 235 0 235 30
0 30 0 0 -235z m249 224 c41 -14 51 -35 51 -103 0 -56 0 -56 -30 -56 l-30 0 0
60 0 60 -92 0 -91 0 23 25 c20 21 33 25 80 25 31 0 71 -5 89 -11z m633 -79
c44 -64 68 -90 83 -90 14 0 37 26 79 90 55 84 61 90 92 90 19 0 34 -3 34 -7 0
-5 -38 -55 -84 -113 l-84 -105 95 -122 94 -123 -39 0 c-37 0 -40 2 -107 100
-39 58 -75 100 -84 100 -9 -1 -46 -45 -84 -100 -64 -95 -70 -100 -103 -100
-25 0 -33 3 -28 13 6 9 115 157 165 223 5 6 -24 52 -71 112 -44 56 -80 107
-80 112 0 6 13 10 30 10 26 0 37 -11 92 -90z m-322 -150 l0 -230 -30 0 -30 0
0 202 0 202 27 28 c15 15 28 28 30 28 2 0 3 -103 3 -230z m-2565 10 c-16 -18
-31 -20 -127 -20 l-108 0 0 -85 0 -85 135 0 c74 0 135 -3 135 -6 0 -3 -10 -14
-22 -25 -20 -16 -41 -18 -145 -19 -109 0 -125 2 -143 20 -26 26 -33 58 -28
137 6 98 15 103 186 103 134 0 135 0 117 -20z"/>
<path d="M1400 1525 l0 -185 170 0 170 0 0 185 0 185 -170 0 -170 0 0 -185z"/>
</g>
</svg>
